<?xml version="1.0" encoding="UTF-8" standalone="no"?>
<svg width="1441px" height="975px" viewBox="0 0 1441 975" version="1.1" xmlns="http://www.w3.org/2000/svg" xmlns:xlink="http://www.w3.org/1999/xlink">
    <!-- Generator: Sketch 3.6.1 (26313) - http://www.bohemiancoding.com/sketch -->
    <title>Group 4</title>
    <desc>Created with Sketch.</desc>
    <defs></defs>
    <g id="Page-1" stroke="none" stroke-width="1" fill="none" fill-rule="evenodd" fill-opacity="0.1">
        <g id="Desktop-HD" fill="#93649C">
            <g id="Group-4" transform="translate(-1.000000, -24.000000)">
                <path d="M1393.5713,362.687919 C1374.85186,380.850015 1357.13363,397.984194 1343.46367,397.19657 L1343.44365,397.526971 C1339.27858,393.962635 1333.8453,390.331551 1323.87317,390.428335 L1323.96328,395.611308 C1333.37473,395.474474 1337.51977,399.14227 1341.88175,403.053695 C1344.45488,405.366509 1347.11478,407.702685 1350.72584,409.004268 C1331.60257,422.113551 1296.51322,437.308704 1264.40415,432.879983 C1246.66924,430.433673 1232.57543,422.210335 1222.51652,408.443586 L1222.17277,408.697228 C1216.50254,399.082197 1209.05681,390.928944 1199.97243,384.477762 C1206.21336,378.490478 1211.53316,371.772305 1215.80502,364.510136 C1229.42827,373.754716 1241.81667,377.429187 1253.26727,377.429187 C1276.79589,377.425849 1296.32966,361.953692 1314.27482,347.736395 C1329.17629,335.932034 1343.25008,324.781802 1357.28382,324.781802 L1359.87363,324.781802 L1359.87363,318.761144 L1357.28382,318.761144 C1343.29013,318.761144 1329.23636,307.88124 1314.3616,296.360557 C1287.5957,275.628668 1257.31219,252.216851 1215.64149,280.537974 C1211.16939,272.995464 1205.54254,266.067035 1198.9612,259.922893 C1208.72308,253.20472 1216.5793,244.901284 1222.48315,235.075998 L1222.51652,235.096022 C1232.57543,221.329273 1246.66924,213.105935 1264.40415,210.659625 C1296.5032,206.217554 1331.58255,221.416045 1350.70581,234.52199 C1347.09475,235.823574 1344.46155,238.176436 1341.88175,240.492587 C1337.52645,244.397338 1333.42479,248.065134 1323.96328,247.934975 L1323.87317,253.117948 C1324.09344,253.117948 1324.30703,253.121285 1324.52396,253.121285 C1334.0322,253.121285 1339.35868,249.520237 1343.44698,246.015974 L1343.46367,246.343039 C1357.18036,245.562088 1374.85186,262.689593 1393.5713,280.851689 C1411.10596,297.859047 1429.1112,315.323628 1447.09976,321.771473 C1429.1112,328.21598 1411.10596,345.683898 1393.5713,362.687919 L1393.5713,362.687919 Z M1210.77891,533.105252 C1209.46731,529.564277 1207.14783,526.941086 1204.86171,524.394654 C1200.95029,520.032681 1197.25913,515.921012 1197.41932,506.47285 L1192.23969,506.386078 C1192.06948,516.301475 1195.75396,521.778138 1199.33499,525.956554 L1199.00459,525.976579 C1199.81891,539.673242 1182.66471,557.361429 1164.49927,576.084207 C1147.49859,593.615536 1130.02733,611.624112 1123.58283,629.609327 C1117.13832,611.624112 1099.67374,593.615536 1082.66638,576.084207 C1064.50428,557.361429 1047.34674,539.673242 1048.15773,525.976579 L1047.82399,525.956554 C1051.40501,521.778138 1055.09283,516.301475 1054.92263,506.386078 L1049.74299,506.47285 C1049.90652,515.917674 1046.20869,520.032681 1042.29727,524.391317 C1039.9978,526.957773 1037.6683,529.597651 1036.36004,533.182012 C1024.12182,514.853046 1010.41848,480.50459 1015.67154,446.883686 C1019.30262,423.615378 1031.30055,404.709043 1051.29488,390.635254 C1059.06433,396.812769 1067.90842,401.979055 1077.53347,405.927191 C1051.76545,446.049338 1075.54772,473.569486 1096.63337,497.952484 C1108.94502,512.189806 1120.56916,525.632827 1120.56916,539.796726 L1120.56916,542.389881 L1126.59315,542.389881 L1126.59315,539.796726 C1126.59315,525.632827 1138.22063,512.189806 1150.53228,497.955822 C1171.79148,473.37258 1195.78734,445.602127 1168.99474,404.945998 C1179.02027,400.574012 1188.13803,394.857057 1196.0343,388.045436 C1213.63238,400.116789 1224.55567,418.162077 1228.4671,441.760787 C1233.93041,474.730899 1224.14183,512.303277 1210.77891,533.105252 L1210.77891,533.105252 Z M1025.48014,408.443586 C1015.42457,422.210335 1001.32742,430.433673 983.589174,432.88332 C951.476772,437.322054 916.397427,422.116888 897.277499,409.004268 C900.888559,407.702685 903.548462,405.363172 906.124929,403.053695 C910.483566,399.14227 914.675332,395.457787 924.043396,395.611308 L924.130168,390.428335 C914.188073,390.271478 908.734771,393.949285 904.566367,397.523634 L904.546342,397.19657 C890.869703,397.974182 873.158155,380.850015 854.432039,362.691256 C836.897373,345.683898 818.895471,328.219317 800.900245,321.771473 C818.895471,315.323628 836.897373,297.859047 854.432039,280.851689 C873.161492,262.689593 890.936451,245.572101 904.546342,246.343039 L904.563029,246.015974 C908.647999,249.520237 913.971142,253.121285 923.482714,253.121285 C923.696307,253.121285 923.913238,253.117948 924.130168,253.117948 L924.043396,247.934975 C914.605247,248.061796 910.483566,244.400675 906.124929,240.492587 C903.541787,238.176436 900.908583,235.823574 897.294186,234.52199 C916.414114,221.419383 951.483447,206.227567 983.589174,210.656288 C1000.3529,212.972439 1013.81261,220.504937 1023.73468,232.933391 C1029.61183,242.688592 1037.44136,251.115511 1047.18655,258.157412 C1040.21139,264.33159 1034.21744,271.356804 1029.45497,279.046159 C987.967834,250.871882 958.82905,274.62745 933.077721,295.663042 C918.533359,307.540826 904.799984,318.761144 890.71952,318.761144 L888.129703,318.761144 L888.129703,324.781802 L890.71952,324.781802 C904.799984,324.781802 918.533359,336.005457 933.081058,347.879903 C950.398794,362.027115 969.241718,377.419175 992.33982,377.419175 C1003.38659,377.419175 1015.4179,373.884875 1028.71407,365.024095 C1033.60336,373.204046 1039.84428,380.673133 1047.1999,387.187726 C1038.54937,393.442002 1031.34394,400.567337 1025.63366,408.55372 L1025.48014,408.443586 Z M1122.1077,230.724036 C1108.46443,230.724036 1095.43191,233.026838 1083.454,237.168543 C1057.35559,198.995435 1079.28894,173.584519 1100.55147,149.001278 C1110.22324,137.814334 1119.49452,127.087951 1123.57615,115.677402 C1127.63442,127.091288 1136.83562,137.854383 1146.4373,149.078038 C1167.69316,173.908246 1189.61983,199.592828 1163.13762,237.996217 C1150.52227,233.313854 1136.65873,230.724036 1122.1077,230.724036 L1122.1077,230.724036 Z M1026.17765,360.468552 C988.077968,386.083049 961.789318,364.643632 936.355041,343.865019 C925.027927,334.617101 914.164711,325.742971 902.810898,321.771473 C914.164711,317.803312 925.027927,308.929182 936.355041,299.674589 C961.939501,278.779168 988.391683,257.216267 1026.85515,283.544966 C1020.434,295.426087 1016.82294,308.678877 1016.82294,322.662557 C1016.82294,336.135615 1020.18703,348.927845 1026.17765,360.468552 L1026.17765,360.468552 Z M1122.1077,414.601077 C1137.02918,414.601077 1151.21978,411.861077 1164.08877,406.955109 C1189.59981,444.814502 1167.76992,470.101934 1146.61084,494.561692 C1136.93908,505.751973 1127.66112,516.478356 1123.58283,527.888905 C1119.50119,516.478356 1110.22991,505.751973 1100.55147,494.561692 C1079.55593,470.285491 1057.87622,445.20164 1082.47615,407.816156 C1094.71771,412.17813 1108.09398,414.601077 1122.1077,414.601077 L1122.1077,414.601077 Z M1218.15789,285.090179 C1256.94174,258.474464 1284.51529,279.790398 1311.19107,300.452202 C1322.70508,309.373055 1333.74518,317.923458 1345.08231,321.791497 C1333.69512,325.746309 1322.61163,334.523654 1311.06091,343.678125 C1284.48191,364.733741 1257.00181,386.460174 1218.31808,359.927894 C1224.13182,348.527358 1227.38912,335.925359 1227.38912,322.662557 C1227.38912,309.282946 1224.06841,296.567476 1218.15789,285.090179 L1218.15789,285.090179 Z M1222.20615,322.662557 C1222.20615,370.500758 1177.30485,409.421443 1122.1077,409.421443 C1107.46989,409.421443 1093.56631,406.658081 1081.01437,401.7421 L1080.58051,401.425047 C1080.55381,401.465096 1080.52711,401.501807 1080.50375,401.538519 C1046.02513,387.821831 1022.00591,357.638442 1022.00591,322.662557 C1022.00591,274.827693 1066.91054,235.907009 1122.1077,235.907009 C1177.30485,235.907009 1222.20615,274.827693 1222.20615,322.662557 L1222.20615,322.662557 Z M1036.34002,110.377621 C1037.64494,113.965319 1039.9978,116.591848 1042.29727,119.158303 L1043.3352,120.319716 C1046.79607,124.247829 1049.88984,128.489656 1049.74299,137.086782 L1054.92263,137.173554 C1055.0895,127.328243 1051.49179,121.891629 1047.87739,117.669826 C1047.74055,104.059934 1064.61775,86.4918942 1082.5162,67.9026115 C1099.58697,50.1710389 1117.12163,31.9655565 1123.58283,13.9002446 C1130.02733,31.8921339 1147.49859,49.9007101 1164.50261,67.4420512 C1182.66471,86.1748418 1199.81891,103.869703 1199.00459,117.573041 L1199.33499,117.593066 C1195.75396,121.77482 1192.06948,127.251483 1192.23969,137.173554 L1197.41932,137.086782 C1197.25913,127.635283 1200.95029,123.520277 1204.86171,119.158303 C1207.1545,116.605197 1209.49401,113.995355 1210.80227,110.444369 C1222.87696,129.397427 1235.03842,166.572655 1228.93099,202.155946 C1224.86271,225.864791 1213.41879,244.08696 1194.94631,256.371906 C1187.05338,249.757192 1178.00237,244.193757 1168.06695,239.961942 C1195.78066,198.811878 1171.70137,170.630926 1150.37542,145.70727 C1138.14387,131.409876 1126.59315,117.903443 1126.59315,103.746219 L1126.59315,101.156402 L1120.56916,101.156402 L1120.56916,103.746219 C1120.56916,117.916793 1108.94502,131.369827 1096.63337,145.610486 C1075.30075,170.273825 1051.22146,198.151074 1078.45459,239.034146 C1068.46911,243.025669 1059.30129,248.318776 1051.27819,254.70321 C1042.31062,248.41556 1035.00506,240.913099 1029.40825,232.229201 L1029.66523,232.038969 C1029.16462,231.351466 1028.60728,230.747398 1028.08331,230.079919 C1022.62333,220.968834 1018.94218,210.639601 1017.11663,199.122256 C1012.02711,166.969805 1022.75683,131.016063 1036.34002,110.377621 L1036.34002,110.377621 Z M1397.18236,277.133832 C1379.80789,260.279994 1363.27444,244.287204 1348.61661,241.573903 C1350.99283,239.77171 1353.49921,238.570249 1357.22041,238.687057 L1357.28382,236.093903 L1358.88577,234.054755 C1340.72701,219.807421 1300.39794,200.453876 1263.69329,205.526714 C1250.35706,207.368955 1238.9632,212.314973 1229.55842,220.137823 C1231.49411,214.771294 1233.00261,209.074363 1234.04054,203.033681 C1240.37825,166.108757 1227.45253,122.739327 1211.29954,102.147608 L1206.46366,95.9834418 L1206.67058,103.812967 C1206.76736,107.527486 1205.57591,110.037206 1203.77706,112.413431 C1201.06709,97.7355734 1185.0743,81.2154748 1168.2238,63.8309912 C1147.54865,42.5117205 1126.17264,20.4749101 1126.17264,0 L1120.99301,0 C1120.99301,20.4782475 1099.5369,42.7553502 1078.78499,64.3082385 C1062.25154,81.4757915 1046.53576,97.8190083 1043.28513,112.283272 C1041.54635,109.943759 1040.39829,107.460739 1040.49507,103.812967 L1040.70867,95.9834418 L1035.86945,102.147608 C1020.00014,122.378888 1006.23673,163.528952 1012.00041,199.929905 C1013.0617,206.644741 1014.73039,212.969102 1016.95977,218.923012 C1007.84535,211.797677 996.938748,207.268833 984.300039,205.526714 C947.585371,200.453876 907.269655,219.810759 889.124246,234.054755 L890.71952,236.093903 L890.789606,238.687057 C894.4841,238.560236 896.997158,239.765036 899.383394,241.573903 C884.735573,244.283867 868.19545,260.283332 850.824316,277.133832 C829.51172,297.805649 807.47491,319.181655 787,319.181655 L787,324.36129 C807.47491,324.36129 829.51172,345.740634 850.824316,366.409113 C868.2088,383.269626 884.725561,399.255741 899.403419,401.955693 C897.010507,403.767898 894.500787,404.979372 890.792943,404.855888 L890.71952,407.445705 L889.124246,409.484853 C905.25387,422.143587 938.898135,438.840568 971.951682,438.840568 C976.086713,438.840568 980.221744,438.576914 984.300039,438.012894 C996.708468,436.300811 1007.45154,431.922151 1016.4625,425.027095 C1013.70248,431.618448 1011.71339,438.636987 1010.55531,446.082712 C1004.91512,482.213336 1019.72313,520.820306 1035.86945,541.395338 L1037.90526,539.796726 L1040.49507,539.729978 C1040.39829,536.015459 1041.5864,533.509076 1043.38526,531.132852 C1046.10189,545.800697 1062.09468,562.314121 1078.94519,579.69193 C1099.617,601.001188 1120.99301,623.041336 1120.99301,643.509571 L1126.17264,643.509571 C1126.17264,623.041336 1147.54865,601.001188 1168.22047,579.69193 C1185.0743,562.317458 1201.06709,545.804035 1203.77706,531.132852 C1205.57591,533.509076 1206.76736,536.018796 1206.67058,539.729978 L1209.2604,539.796726 L1211.29954,541.395338 C1227.09877,521.260842 1239.75082,478.165077 1233.57998,440.913089 C1232.52203,434.542005 1230.94344,428.507997 1228.86425,422.83109 C1238.39584,430.997693 1250.03,436.127267 1263.69329,438.012894 C1267.78159,438.576914 1271.90661,438.840568 1276.04498,438.840568 C1309.10186,438.840568 1342.75281,422.143587 1358.88577,409.484853 L1357.28382,407.445705 L1357.21707,404.855888 C1353.53592,404.982709 1351.00618,403.771235 1348.60659,401.955693 C1363.28445,399.249067 1379.80121,383.266288 1397.18236,366.409113 C1418.49162,345.737297 1440.52843,324.36129 1461,324.36129 L1461,319.181655 C1440.52843,319.181655 1418.49162,297.805649 1397.18236,277.133832 L1397.18236,277.133832 Z M1122.1077,373.681294 C1089.56143,373.681294 1063.08589,350.793448 1063.08589,322.662557 C1063.08589,294.531666 1089.56143,271.647157 1122.1077,271.647157 C1154.65396,271.647157 1181.13284,294.531666 1181.13284,322.662557 C1181.13284,350.793448 1154.65396,373.681294 1122.1077,373.681294 L1122.1077,373.681294 Z M1122.1077,266.464185 C1086.70796,266.464185 1057.90292,291.674857 1057.90292,322.662557 C1057.90292,353.650257 1086.70796,378.864266 1122.1077,378.864266 C1157.51077,378.864266 1186.31581,353.650257 1186.31581,322.662557 C1186.31581,291.674857 1157.51077,266.464185 1122.1077,266.464185 L1122.1077,266.464185 Z" id="Page-1-Copy-6"></path>
                <path d="M606.571298,717.687919 C587.851857,735.850015 570.133634,752.984194 556.46367,752.19657 L556.443646,752.526971 C552.278578,748.962635 546.845301,745.331551 536.873169,745.428335 L536.963279,750.611308 C546.374729,750.474474 550.519772,754.14227 554.881745,758.053695 C557.454876,760.366509 560.114779,762.702685 563.725839,764.004268 C544.602573,777.113551 509.513216,792.308704 477.404151,787.879983 C459.669242,785.433673 445.575428,777.210335 435.516524,763.443586 L435.172772,763.697228 C429.50254,754.082197 422.056815,745.928944 412.972429,739.477762 C419.213356,733.490478 424.533161,726.772305 428.805025,719.510136 C442.428266,728.754716 454.816671,732.429187 466.267269,732.429187 C489.795894,732.425849 509.329659,716.953692 527.274825,702.736395 C542.176288,690.932034 556.250077,679.781802 570.283817,679.781802 L572.873635,679.781802 L572.873635,673.761144 L570.283817,673.761144 C556.290125,673.761144 542.236361,662.88124 527.361597,651.360557 C500.5957,630.628668 470.31219,607.216851 428.641493,635.537974 C424.169385,627.995464 418.542539,621.067035 411.961199,614.922893 C421.723076,608.20472 429.5793,599.901284 435.48315,590.075998 L435.516524,590.096022 C445.575428,576.329273 459.669242,568.105935 477.404151,565.659625 C509.503204,561.217554 544.582549,576.416045 563.705814,589.52199 C560.094754,590.823574 557.461551,593.176436 554.881745,595.492587 C550.526447,599.397338 546.42479,603.065134 536.963279,602.934975 L536.873169,608.117948 C537.093437,608.117948 537.30703,608.121285 537.523961,608.121285 C547.032195,608.121285 552.358676,604.520237 556.446983,601.015974 L556.46367,601.343039 C570.180358,600.562088 587.851857,617.689593 606.571298,635.851689 C624.105965,652.859047 642.111204,670.323628 660.099755,676.771473 C642.111204,683.21598 624.105965,700.683898 606.571298,717.687919 L606.571298,717.687919 Z M423.77891,888.105252 C422.467314,884.564277 420.147826,881.941086 417.861711,879.394654 C413.950286,875.032681 410.259128,870.921012 410.419323,861.47285 L405.239688,861.386078 C405.069481,871.301475 408.753964,876.778138 412.334987,880.956554 L412.004585,880.976579 C412.818909,894.673242 395.664706,912.361429 377.499272,931.084207 C360.498589,948.615536 343.027333,966.624112 336.582826,984.609327 C330.138319,966.624112 312.673738,948.615536 295.666379,931.084207 C277.504283,912.361429 260.346742,894.673242 261.157729,880.976579 L260.82399,880.956554 C264.405013,876.778138 268.092833,871.301475 267.922626,861.386078 L262.742991,861.47285 C262.906523,870.917674 259.208691,875.032681 255.297266,879.391317 C252.997801,881.957773 250.668301,884.597651 249.360042,888.182012 C237.12182,869.853046 223.418481,835.50459 228.671539,801.883686 C232.302623,778.615378 244.300554,759.709043 264.294879,745.635254 C272.064331,751.812769 280.908425,756.979055 290.533468,760.927191 C264.765452,801.049338 288.547719,828.569486 309.633372,852.952484 C321.945017,867.189806 333.569159,880.632827 333.569159,894.796726 L333.569159,897.389881 L339.593155,897.389881 L339.593155,894.796726 C339.593155,880.632827 351.220634,867.189806 363.53228,852.955822 C384.791477,828.37258 408.787338,800.602127 381.994741,759.945998 C392.020272,755.574012 401.138031,749.857057 409.034305,743.045436 C426.632382,755.116789 437.555671,773.162077 441.467096,796.760787 C446.93041,829.730899 437.141834,867.303277 423.77891,888.105252 L423.77891,888.105252 Z M238.480139,763.443586 C228.424572,777.210335 214.327421,785.433673 196.589174,787.88332 C164.476772,792.322054 129.397427,777.116888 110.277499,764.004268 C113.888559,762.702685 116.548462,760.363172 119.124929,758.053695 C123.483566,754.14227 127.675332,750.457787 137.043396,750.611308 L137.130168,745.428335 C127.188073,745.271478 121.734771,748.949285 117.566367,752.523634 L117.546342,752.19657 C103.869703,752.974182 86.1581548,735.850015 67.432039,717.691256 C49.8973727,700.683898 31.8954712,683.219317 13.9002446,676.771473 C31.8954712,670.323628 49.8973727,652.859047 67.432039,635.851689 C86.1614922,617.689593 103.936451,600.572101 117.546342,601.343039 L117.563029,601.015974 C121.647999,604.520237 126.971142,608.121285 136.482714,608.121285 C136.696307,608.121285 136.913238,608.117948 137.130168,608.117948 L137.043396,602.934975 C127.605247,603.061796 123.483566,599.400675 119.124929,595.492587 C116.541787,593.176436 113.908583,590.823574 110.294186,589.52199 C129.414114,576.419383 164.483447,561.227567 196.589174,565.656288 C213.352902,567.972439 226.812611,575.504937 236.734682,587.933391 C242.611832,597.688592 250.441358,606.115511 260.186547,613.157412 C253.211395,619.33159 247.217436,626.356804 242.454975,634.046159 C200.967834,605.871882 171.82905,629.62745 146.077721,650.663042 C131.533359,662.540826 117.799984,673.761144 103.71952,673.761144 L101.129703,673.761144 L101.129703,679.781802 L103.71952,679.781802 C117.799984,679.781802 131.533359,691.005457 146.081058,702.879903 C163.398794,717.027115 182.241718,732.419175 205.33982,732.419175 C216.386593,732.419175 228.417897,728.884875 241.714074,720.024095 C246.603355,728.204046 252.844281,735.673133 260.199897,742.187726 C251.549373,748.442002 244.34394,755.567337 238.633659,763.55372 L238.480139,763.443586 Z M335.107698,585.724036 C321.464432,585.724036 308.43191,588.026838 296.454004,592.168543 C270.355586,553.995435 292.288937,528.584519 313.551472,504.001278 C323.223239,492.814334 332.494519,482.087951 336.576151,470.677402 C340.634422,482.091288 349.835616,492.854383 359.437298,504.078038 C380.693158,528.908246 402.619834,554.592828 376.137615,592.996217 C363.522267,588.313854 349.658734,585.724036 335.107698,585.724036 L335.107698,585.724036 Z M239.177654,715.468552 C201.077968,741.083049 174.789318,719.643632 149.355041,698.865019 C138.027927,689.617101 127.164711,680.742971 115.810898,676.771473 C127.164711,672.803312 138.027927,663.929182 149.355041,654.674589 C174.939501,633.779168 201.391683,612.216267 239.855145,638.544966 C233.434,650.426087 229.82294,663.678877 229.82294,677.662557 C229.82294,691.135615 233.187033,703.927845 239.177654,715.468552 L239.177654,715.468552 Z M335.107698,769.601077 C350.029185,769.601077 364.219783,766.861077 377.088773,761.955109 C402.59981,799.814502 380.769918,825.101934 359.610842,849.561692 C349.939075,860.751973 340.661121,871.478356 336.582826,882.888905 C332.501193,871.478356 323.229914,860.751973 313.551472,849.561692 C292.555929,825.285491 270.876219,800.20164 295.476148,762.816156 C307.717708,767.17813 321.093982,769.601077 335.107698,769.601077 L335.107698,769.601077 Z M431.157887,640.090179 C469.941739,613.474464 497.515286,634.790398 524.191073,655.452202 C535.705081,664.373055 546.74518,672.923458 558.082306,676.791497 C546.695119,680.746309 535.611634,689.523654 524.060915,698.678125 C497.481912,719.733741 470.001812,741.460174 431.318082,714.927894 C437.131822,703.527358 440.389118,690.925359 440.389118,677.662557 C440.389118,664.282946 437.068412,651.567476 431.157887,640.090179 L431.157887,640.090179 Z M435.206146,677.662557 C435.206146,725.500758 390.304852,764.421443 335.107698,764.421443 C320.469889,764.421443 306.566307,761.658081 294.01437,756.7421 L293.580508,756.425047 C293.553809,756.465096 293.52711,756.501807 293.503748,756.538519 C259.025134,742.821831 235.005912,712.638442 235.005912,677.662557 C235.005912,629.827693 279.910544,590.907009 335.107698,590.907009 C390.304852,590.907009 435.206146,629.827693 435.206146,677.662557 L435.206146,677.662557 Z M249.340018,465.377621 C250.644939,468.965319 252.997801,471.591848 255.297266,474.158303 L256.335195,475.319716 C259.796072,479.247829 262.889836,483.489656 262.742991,492.086782 L267.922626,492.173554 C268.089496,482.328243 264.491785,476.891629 260.877388,472.669826 C260.740555,459.059934 277.617755,441.491894 295.516197,422.902611 C312.586965,405.171039 330.121632,386.965557 336.582826,368.900245 C343.027333,386.892134 360.498589,404.90071 377.50261,422.442051 C395.664706,441.174842 412.818909,458.869703 412.004585,472.573041 L412.334987,472.593066 C408.753964,476.77482 405.069481,482.251483 405.239688,492.173554 L410.419323,492.086782 C410.259128,482.635283 413.950286,478.520277 417.861711,474.158303 C420.154501,471.605197 422.494013,468.995355 423.802272,465.444369 C435.876962,484.397427 448.038425,521.572655 441.930994,557.155946 C437.862711,580.864791 426.418788,599.08696 407.946315,611.371906 C400.053378,604.757192 391.002367,599.193757 381.066946,594.961942 C408.780663,553.811878 384.701368,525.630926 363.375422,500.70727 C351.143874,486.409876 339.593155,472.903443 339.593155,458.746219 L339.593155,456.156402 L333.569159,456.156402 L333.569159,458.746219 C333.569159,472.916793 321.945017,486.369827 309.633372,500.610486 C288.300752,525.273825 264.221456,553.151074 291.454589,594.034146 C281.469107,598.025669 272.301286,603.318776 264.278192,609.70321 C255.310615,603.41556 248.005061,595.913099 242.408251,587.229201 L242.665231,587.038969 C242.164622,586.351466 241.607277,585.747398 241.083306,585.079919 C235.62333,575.968834 231.942185,565.639601 230.116631,554.122256 C225.027105,521.969805 235.756826,486.016063 249.340018,465.377621 L249.340018,465.377621 Z M610.182358,632.133832 C592.807887,615.279994 576.274439,599.287204 561.616606,596.573903 C563.99283,594.77171 566.499213,593.570249 570.220407,593.687057 L570.283817,591.093903 L571.885766,589.054755 C553.727007,574.807421 513.397942,555.453876 476.693287,560.526714 C463.357062,562.368955 451.9632,567.314973 442.558424,575.137823 C444.494113,569.771294 446.002614,564.074363 447.040544,558.033681 C453.378254,521.108757 440.452529,477.739327 424.299543,457.147608 L419.46366,450.983442 L419.670578,458.812967 C419.767363,462.527486 418.575913,465.037206 416.777058,467.413431 C414.067094,452.735573 398.074304,436.215475 381.223803,418.830991 C360.54865,397.51172 339.172643,375.47491 339.172643,355 L333.993008,355 C333.993008,375.478248 312.536904,397.75535 291.784991,419.308239 C275.251542,436.475792 259.535756,452.819008 256.285134,467.283272 C254.546352,464.943759 253.398289,462.460739 253.495073,458.812967 L253.708666,450.983442 L248.869446,457.147608 C233.000139,477.378888 219.236727,518.528952 225.000406,554.929905 C226.061697,561.644741 227.730394,567.969102 229.959773,573.923012 C220.845351,566.797677 209.938748,562.268833 197.300039,560.526714 C160.585371,555.453876 120.269655,574.810759 102.124246,589.054755 L103.71952,591.093903 L103.789606,593.687057 C107.4841,593.560236 109.997158,594.765036 112.383394,596.573903 C97.7355734,599.283867 81.1954504,615.283332 63.8243164,632.133832 C42.5117205,652.805649 20.4749101,674.181655 0,674.181655 L0,679.36129 C20.4749101,679.36129 42.5117205,700.740634 63.8243164,721.409113 C81.2088,738.269626 97.7255613,754.255741 112.403419,756.955693 C110.010507,758.767898 107.500787,759.979372 103.792943,759.855888 L103.71952,762.445705 L102.124246,764.484853 C118.25387,777.143587 151.898135,793.840568 184.951682,793.840568 C189.086713,793.840568 193.221744,793.576914 197.300039,793.012894 C209.708468,791.300811 220.451538,786.922151 229.462501,780.027095 C226.702477,786.618448 224.71339,793.636987 223.555315,801.082712 C217.915119,837.213336 232.723135,875.820306 248.869446,896.395338 L250.905256,894.796726 L253.495073,894.729978 C253.398289,891.015459 254.586401,888.509076 256.385256,886.132852 C259.101894,900.800697 275.094685,917.314121 291.945186,934.69193 C312.617002,956.001188 333.993008,978.041336 333.993008,998.509571 L339.172643,998.509571 C339.172643,978.041336 360.54865,956.001188 381.220466,934.69193 C398.074304,917.317458 414.067094,900.804035 416.777058,886.132852 C418.575913,888.509076 419.767363,891.018796 419.670578,894.729978 L422.260396,894.796726 L424.299543,896.395338 C440.098765,876.260842 452.750824,833.165077 446.579984,795.913089 C445.52203,789.542005 443.943443,783.507997 441.864246,777.83109 C451.395843,785.997693 463.029997,791.127267 476.693287,793.012894 C480.781594,793.576914 484.906612,793.840568 489.044981,793.840568 C522.101865,793.840568 555.752805,777.143587 571.885766,764.484853 L570.283817,762.445705 L570.217069,759.855888 C566.535924,759.982709 564.00618,758.771235 561.606594,756.955693 C576.284451,754.249067 592.801212,738.266288 610.182358,721.409113 C631.491617,700.737297 653.528427,679.36129 674,679.36129 L674,674.181655 C653.528427,674.181655 631.491617,652.805649 610.182358,632.133832 L610.182358,632.133832 Z M335.107698,728.681294 C302.561435,728.681294 276.085891,705.793448 276.085891,677.662557 C276.085891,649.531666 302.561435,626.647157 335.107698,626.647157 C367.653961,626.647157 394.132842,649.531666 394.132842,677.662557 C394.132842,705.793448 367.653961,728.681294 335.107698,728.681294 L335.107698,728.681294 Z M335.107698,621.464185 C299.707963,621.464185 270.902918,646.674857 270.902918,677.662557 C270.902918,708.650257 299.707963,733.864266 335.107698,733.864266 C370.51077,733.864266 399.315814,708.650257 399.315814,677.662557 C399.315814,646.674857 370.51077,621.464185 335.107698,621.464185 L335.107698,621.464185 Z" id="Page-1"></path>
            </g>
        </g>
    </g>
</svg>