<?xml version="1.0" encoding="UTF-8" standalone="no"?>
<svg width="146px" height="144px" viewBox="0 0 146 144" version="1.1" xmlns="http://www.w3.org/2000/svg" xmlns:xlink="http://www.w3.org/1999/xlink">
    <!-- Generator: Sketch 3.6.1 (26313) - http://www.bohemiancoding.com/sketch -->
    <title>Page 1</title>
    <desc>Created with Sketch.</desc>
    <defs></defs>
    <g id="Page-1" stroke="none" stroke-width="1" fill="none" fill-rule="evenodd" fill-opacity="0.1">
        <g id="Desktop-HD" transform="translate(-5.000000, -870.000000)" fill="#93649C">
            <path d="M112.936002,943.856 L112.688002,943.684 C121.673002,930.899 113.931002,923.262 107.099002,916.526 C103.215502,912.692 99.5045025,909.03 99.8025025,904.942 C97.2385025,907.446 93.3295025,912.485 93.4795025,919.836 L91.7495025,919.872 C91.7205025,918.528 91.8195025,917.26 92.0075025,916.065 C90.7385025,917.508 89.1985025,918.868 87.4035025,920.141 C92.5785025,927.335 97.6825025,936.028 96.2855025,944.481 C95.4795025,949.342 92.5315025,953.616 87.5235025,957.198 C89.6765025,959.297 92.0495025,961.344 94.4675025,963.424 C96.6285025,965.286 98.8025025,967.157 100.849502,969.094 C99.2385025,962.932 104.831502,955.157 110.268002,947.602 C111.166002,946.356 112.064002,945.104 112.936002,943.856 L112.936002,943.856 Z M78.4805025,940.004 C78.4805025,946.27 81.7495025,951.278 86.2825025,955.954 C91.0445025,952.614 93.8375025,948.663 94.5765025,944.2 C96.1825025,934.487 88.2375025,924.018 82.4365025,916.372 C80.1355025,913.336 78.3015025,910.913 77.4535025,909.051 C76.6055025,910.913 74.7715025,913.336 72.4705025,916.37 C66.6695025,924.016 58.7245025,934.487 60.3305025,944.198 C61.0635025,948.622 63.8125025,952.542 68.4965025,955.864 C72.9835025,951.213 76.2105025,946.229 76.2105025,940.004 L78.4805025,940.004 Z M67.2595025,957.112 C62.3265025,953.547 59.4205025,949.303 58.6225025,944.481 C57.2205025,936.006 62.3545025,927.292 67.5405025,920.088 C65.8245025,918.651 64.3865025,917.231 63.1975025,915.823 C63.4105025,917.088 63.5215025,918.438 63.4915025,919.872 L61.7605025,919.836 C61.9115025,912.485 58.0025025,907.446 55.4375025,904.942 C55.7375025,909.03 52.0265025,912.692 48.1405025,916.526 C41.3105025,923.262 33.5695025,930.899 42.5525025,943.684 L42.3055025,943.856 C43.1755025,945.102 44.0755025,946.356 44.9715025,947.6 C50.2215025,954.893 55.6155025,962.391 54.5315025,968.452 C56.3755025,966.741 58.3025025,965.079 60.2245025,963.424 C62.6765025,961.315 65.0825025,959.241 67.2595025,957.112 L67.2595025,957.112 Z M68.5645025,918.686 C69.4275025,917.516 70.2795025,916.393 71.0915025,915.321 C73.7325025,911.838 76.2295025,908.547 76.2345025,907.145 L77.4535025,907.149 L78.6735025,907.145 C78.6785025,908.547 81.1755025,911.838 83.8175025,915.323 C84.6405025,916.411 85.5075025,917.553 86.3845025,918.741 C91.0835025,915.415 93.8435025,911.485 94.5765025,907.051 C96.1825025,897.336 88.2375025,886.868 82.4365025,879.223 C80.2945025,876.397 78.5545025,874.104 77.6405025,872.298 C76.6745025,875.915 73.6475025,879.737 70.2315025,884.045 C62.1885025,894.188 53.1035025,905.67 68.5645025,918.686 L68.5645025,918.686 Z M150.232002,982.756 C149.968002,994.715 144.796002,1004.456 134.865002,1011.71 L133.843002,1010.311 C143.315002,1003.391 148.248002,994.108 148.500002,982.719 C148.633002,976.727 147.413002,970.528 145.255002,964.465 C144.546002,967.954 142.682002,969.651 140.990002,971.188 C139.072002,972.926 137.560002,974.301 137.815002,978.071 L136.087002,978.188 C135.777002,973.583 137.835002,971.713 139.824002,969.907 C141.947002,967.979 143.951002,966.149 143.813002,960.76 C138.710002,948.667 130.099002,937.422 121.262002,929.876 C121.181002,935.401 116.551002,941.842 111.675002,948.614 C105.761002,956.831 99.6435025,965.329 103.538502,970.813 C103.587502,970.885 107.848002,976.944 113.845002,977.252 C117.455002,977.426 121.080002,975.483 124.538002,971.438 C125.738002,970.034 126.224002,968.35 125.943002,966.563 C125.819002,965.768 125.527002,964.983 125.111002,964.221 C124.633002,963.489 124.166002,962.84 123.733002,962.311 C122.999002,961.518 122.102002,960.786 121.068002,960.149 C118.495002,958.563 114.305002,960.256 112.280002,962.829 C111.339002,964.026 110.103002,966.377 112.421002,968.672 C113.563002,969.807 114.722002,970.231 115.861002,969.938 C117.348002,969.555 118.400002,968.073 118.499002,967.737 C118.732002,965.854 117.218002,965.444 116.912002,965.381 L117.237002,963.68 C118.425002,963.903 120.574002,965.09 120.210002,967.995 C120.104002,968.836 118.680002,970.809 116.667002,971.502 C115.360002,971.952 113.353002,972.04 111.199002,969.903 C108.848002,967.569 108.744002,964.524 110.919002,961.758 C113.399002,958.608 118.551002,956.567 121.977002,958.674 C124.104002,959.985 125.694002,961.624 126.667002,963.438 C132.333002,972.309 139.431002,993.905 118.442002,1012.256 L117.302002,1010.954 C134.400002,996.002 132.029002,978.856 127.621002,968.897 C127.378002,970.225 126.783002,971.479 125.854002,972.565 C122.202002,976.835 118.326002,978.997 114.326002,978.997 C114.134002,978.997 113.940002,978.991 113.748002,978.981 C111.535002,978.866 109.563002,978.104 107.896002,977.12 C113.761002,985.809 114.926002,996.69 103.028502,1013.249 L101.621502,1012.237 C119.550002,987.288 106.817002,976.335 93.3365025,964.739 C86.4685025,958.829 79.4045025,952.751 77.3455025,944.729 C75.2865025,952.751 68.2225025,958.829 61.3555025,964.739 C47.8765025,976.335 35.1455025,987.288 53.0715025,1012.237 L51.6655025,1013.249 C39.9805025,996.987 40.8965025,986.2 46.4875025,977.585 C45.0125025,978.335 43.3395025,978.883 41.4945025,978.981 C41.3015025,978.991 41.1065025,978.997 40.9135025,978.997 C36.9135025,978.997 33.0385025,976.835 29.3865025,972.563 C28.4595025,971.479 27.8645025,970.225 27.6195025,968.897 C23.2115025,978.856 20.8395025,996.001 37.9375025,1010.954 L36.7985025,1012.256 C15.8115025,993.907 22.9055025,972.319 28.5725025,963.444 C29.5435025,961.627 31.1355025,959.985 33.2645025,958.674 C36.6905025,956.565 41.8425025,958.606 44.3215025,961.758 C46.4985025,964.524 46.3945025,967.569 44.0435025,969.903 C41.8865025,972.042 39.8785025,971.954 38.5735025,971.502 C36.5615025,970.807 35.1355025,968.836 35.0305025,967.995 C34.6675025,965.09 36.8165025,963.903 38.0035025,963.68 L38.3285025,965.381 C38.0225025,965.444 36.5085025,965.854 36.7485025,967.78 C36.8405025,968.073 37.8925025,969.555 39.3805025,969.938 C40.5225025,970.235 41.6795025,969.805 42.8235025,968.672 C45.1365025,966.377 43.9025025,964.026 42.9605025,962.829 C40.9365025,960.256 36.7465025,958.563 34.1725025,960.149 C33.1395025,960.786 32.2445025,961.516 31.5085025,962.311 L31.5095025,962.311 C31.0745025,962.842 30.6055025,963.493 30.1245025,964.231 C29.7125025,964.987 29.4225025,965.77 29.2975025,966.561 C29.0165025,968.348 29.5025025,970.034 30.7025025,971.438 C34.1625025,975.485 37.7585025,977.442 41.4055025,977.251 C47.4165025,976.938 51.6535025,970.885 51.6955025,970.825 C55.5985025,965.327 49.4825025,956.831 43.5665025,948.614 C38.6915025,941.84 34.0585025,935.401 33.9775025,929.876 C25.1415025,937.424 16.5315025,948.667 11.4285025,960.76 C11.2905025,966.149 13.2935025,967.979 15.4165025,969.907 C17.4065025,971.713 19.4645025,973.583 19.1555025,978.188 L17.4275025,978.071 C17.6805025,974.301 16.1675025,972.926 14.2525025,971.188 C12.5585025,969.651 10.6975025,967.954 9.98650249,964.467 C7.82850249,970.528 6.60850249,976.727 6.74150249,982.717 C6.99350249,994.108 11.9245025,1003.391 21.3965025,1010.311 L20.3755025,1011.71 C10.4445025,1004.456 5.27550249,994.715 5.01050249,982.756 C4.79650249,973.149 7.85650249,962.45 13.8575025,951.817 C19.2325025,942.292 26.5675025,933.545 34.5085025,927.184 L35.0495025,927.86 L35.8915025,928.059 C35.4365025,929.983 35.8665025,932.19 36.8415025,934.559 C35.8275025,926.251 41.8285025,920.319 46.9255025,915.292 C52.1325025,910.153 55.2115025,906.801 52.9935025,902.813 L51.2835025,899.739 L54.2245025,901.667 C54.4015025,901.782 56.3805025,903.114 58.4645025,905.633 C57.5695025,897.241 63.6255025,889.587 68.8745025,882.969 C72.6555025,878.202 76.2275025,873.698 76.2345025,870.002 L77.5715025,870.004 L78.6735025,870 C78.6785025,871.402 81.1755025,874.692 83.8175025,878.176 C89.5625025,885.747 97.3385025,896.001 96.4415025,906.047 C98.6435025,903.256 100.830502,901.788 101.016502,901.667 L103.957502,899.739 L102.247502,902.813 C100.029502,906.801 103.107502,910.153 108.317002,915.292 C113.413002,920.319 119.414002,926.251 118.400002,934.559 C119.374002,932.188 119.804002,929.983 119.349002,928.059 L120.192002,927.86 L120.732002,927.184 C128.675002,933.545 136.007002,942.292 141.386002,951.817 C147.386002,962.45 150.444002,973.151 150.232002,982.756 L150.232002,982.756 Z M78.1155025,986.954 L77.9495025,986.901 C77.9525025,986.829 77.9665025,986.76 77.9665025,986.688 L77.2955025,986.686 L76.4705025,986.415 C76.4415025,986.504 76.4205025,986.592 76.3985025,986.682 L76.2345025,986.682 C76.2275025,988.436 75.0105025,990.155 73.6025025,992.149 C70.4745025,996.571 66.1905025,1002.629 73.9115025,1013.376 L75.3195025,1012.364 C68.3175025,1002.62 71.8765025,997.588 75.0155025,993.149 C75.7215025,992.151 76.4045025,991.176 76.9375025,990.188 C77.3995025,991.143 78.0525025,992.118 78.7465025,993.153 C81.6745025,997.518 85.3185025,1002.954 78.5545025,1012.364 L79.9625025,1013.376 C87.4255025,1002.987 83.2405025,996.747 80.1855025,992.19 C78.7655025,990.071 77.6435025,988.397 78.1155025,986.954 L78.1155025,986.954 Z M86.2055025,982.856 C92.8175025,989.618 100.309502,997.284 88.7045025,1013.436 L87.2975025,1012.424 C98.0535025,997.454 91.6975025,990.952 84.9675025,984.067 C81.8715025,980.899 78.6995025,977.649 77.3355025,973.545 C75.9195025,977.684 72.6095025,980.954 69.3775025,984.139 C62.4015025,991.016 55.8115025,997.51 66.5275025,1012.424 L65.1205025,1013.436 C53.5405025,997.319 61.3075025,989.661 68.1615025,982.905 C72.3565025,978.77 76.3195025,974.864 76.3195025,969.288 L78.3745025,969.288 C78.3745025,974.844 82.1785025,978.737 86.2055025,982.856 L86.2055025,982.856 Z" id="Page-1"></path>
        </g>
    </g>
</svg>