<?xml version="1.0" encoding="UTF-8" standalone="no"?>
<svg width="267px" height="267px" viewBox="0 0 267 267" version="1.1" xmlns="http://www.w3.org/2000/svg" xmlns:xlink="http://www.w3.org/1999/xlink">
    <!-- Generator: Sketch 3.6.1 (26313) - http://www.bohemiancoding.com/sketch -->
    <title>Page 1</title>
    <desc>Created with Sketch.</desc>
    <defs></defs>
    <g id="Page-1" stroke="none" stroke-width="1" fill="none" fill-rule="evenodd">
        <g id="Desktop-HD" transform="translate(-592.000000, -335.000000)" fill="#93649C">
            <path d="M740.411949,577.28968 C744.575396,581.20092 748.927764,585.146069 753.151528,589.472966 C755.964246,592.354908 758.203482,595.006831 759.848921,597.105744 C748.834007,600.056597 737.256549,601.63 725.315,601.63 C713.799891,601.63 702.62387,600.166918 691.962733,597.416705 C693.571294,595.393424 695.692084,592.910888 698.30963,590.229118 C702.794664,585.633919 707.425804,581.469378 711.821144,577.318588 C721.284688,578.536651 730.900588,578.536339 740.411949,577.28968 L740.411949,577.28968 Z M726.058964,587.144661 C728.289761,587.26342 730.004425,589.171067 729.885666,591.401865 C729.766751,593.632663 727.859259,595.347327 725.628462,595.228567 C723.397664,595.109808 721.682844,593.202161 721.801759,590.971363 C721.920519,588.740565 723.828166,587.025902 726.058964,587.144661 L726.058964,587.144661 Z M810.360641,539.001718 C814.528151,540.338071 819.547289,542.477924 821.367743,545.407213 C824.689875,550.755283 820.756758,555.963968 820.756758,555.963968 C820.756758,555.963968 833.235848,545.639888 826.613461,538.815922 C819.991074,531.992113 816.16734,532.015865 816.16734,532.015865 C816.16734,532.015865 824.936769,530.516999 832.006066,522.763431 C834.950043,519.535212 833.434301,494.560311 838.16748,492.735327 C842.900658,490.910342 850.093402,490.497028 846.865027,494.099182 C843.636653,497.701492 839.450391,495.884945 838.322179,497.660395 C834.948481,502.973462 846.313422,507.170974 846.652511,519.041736 C846.791584,523.906957 849.471479,507.890405 847.968238,503.061594 C846.530627,498.442018 850.784081,498.382482 855.7204,496.119338 C845.921204,542.233999 812.248287,579.566262 768.27301,594.546171 C769.607489,592.961517 771.187298,591.193255 773.007752,589.328736 C783.607009,578.468521 795.023517,570.012867 802.213136,558.461817 C805.152426,553.740671 805.646214,548.554488 805.389944,544.502925 C807.118203,542.715599 808.774581,540.880457 810.360641,539.001718 L810.360641,539.001718 Z M595.064612,496.841894 L595.064925,496.84205 C600.278765,499.431001 604.99538,499.277395 603.492295,504.106206 C601.989054,508.935017 604.670043,524.951569 604.808647,520.086348 C605.146954,508.215743 616.512521,504.018074 613.138198,498.705007 C612.01061,496.929713 607.823724,498.746104 604.595974,495.143794 C601.368225,491.54164 608.559562,491.954954 613.293366,493.779939 C618.027326,495.604923 616.511115,520.57998 619.454311,523.808043 C626.523608,531.561611 635.29288,533.060633 635.29288,533.060633 C635.29288,533.060633 631.470084,533.036725 624.847853,539.860691 C618.225622,546.684656 630.704088,557.00858 630.704088,557.00858 C630.704088,557.00858 626.770658,551.799895 630.093415,546.451825 C632.066537,543.275642 637.80073,541.027656 642.132784,539.725524 C643.450542,541.263143 644.802053,542.756071 646.185754,544.203683 C645.733063,548.406195 645.9723,554.245241 649.247397,559.506585 C656.437641,571.057635 667.853993,579.513133 678.453875,590.373348 C679.872266,591.826585 681.144708,593.221225 682.268858,594.516012 C638.566102,579.594702 605.054291,542.593089 595.064612,496.841894 L595.064612,496.841894 Z M670.748904,563.4883 C678.937975,568.206008 687.640679,571.809099 696.619812,574.271634 C693.994608,576.192564 691.097822,578.389765 688.311356,581.256237 C681.007354,573.811286 672.992203,570.906686 671.115964,565.496267 C670.853287,564.738396 670.743122,564.072876 670.748904,563.4883 L670.748904,563.4883 Z M780.536459,563.809574 C780.484893,564.015997 780.422388,564.229919 780.344257,564.451655 C778.456611,569.896764 770.349734,572.80402 763.008541,580.355854 C760.57554,577.875194 758.062846,575.898635 755.723602,574.165532 C764.264888,571.779566 772.603033,568.334924 780.536459,563.809574 L780.536459,563.809574 Z M630.814721,411.752812 C617.254141,434.776468 612.579717,461.969509 617.373994,487.984803 C616.03389,487.449449 614.498459,487.091921 612.730041,486.944879 C602.548472,486.098251 596.255642,489.03129 594.106257,492.026053 C592.7224,484.330458 592,476.406407 592,468.315 C592,461.81856 592.465661,455.429785 593.365574,449.180707 C596.469877,450.164846 600.559881,450.673167 605.60449,450.253759 C625.710108,448.581911 615.705584,419.694051 630.814721,411.752812 L630.814721,411.752812 Z M832.249834,438.047034 C834.189047,444.377211 837.406483,449.438071 845.480545,450.109373 C850.282479,450.508623 854.218721,450.067495 857.264269,449.175707 C858.164339,455.426347 858.63,461.816685 858.63,468.315 C858.63,475.812611 858.00964,483.166461 856.81736,490.327953 C854.2656,487.578521 848.168253,485.115362 838.730023,485.90011 C837.220531,486.025745 835.87824,486.305142 834.684398,486.71783 C837.467425,470.637992 836.703304,453.985923 832.249834,438.047034 L832.249834,438.047034 Z M615.795434,392.320059 C615.701677,394.065506 616.221405,395.79064 617.722302,397.337635 C624.344533,404.1616 628.167329,404.138161 628.167329,404.138161 C628.167329,404.138161 619.398057,405.636714 612.32876,413.390439 C609.385564,416.618814 610.901775,441.594183 606.167815,443.419324 C601.434011,445.242903 594.242673,445.656841 597.470423,442.055156 C600.698173,438.451752 604.885059,440.269081 606.012646,438.493943 C608.589877,434.435817 602.568786,431.027741 599.429325,424.356912 C603.440572,412.882587 608.977095,402.12238 615.795434,392.320059 L615.795434,392.320059 Z M835.289132,392.97636 C841.98965,402.734927 847.426008,413.426379 851.360688,424.816323 C848.155752,431.093371 842.575633,434.415503 845.072701,438.348619 C846.200914,440.125319 850.387175,438.307991 853.61555,441.909832 C856.843924,445.512611 849.65118,445.099142 844.918002,443.274 C840.184823,441.448859 841.700565,416.475052 838.756588,413.246678 C831.687291,405.492953 822.917863,403.9944 822.917863,403.9944 C822.917863,403.9944 826.741596,404.017839 833.363983,397.193873 C834.634394,395.884397 835.201625,394.446786 835.289132,392.97636 L835.289132,392.97636 Z M596.536601,433.7342 C596.842562,435.165561 596.513787,436.103133 595.749196,436.817251 C595.999684,435.784359 596.262205,434.757717 596.536601,433.7342 L596.536601,433.7342 Z M821.30055,412.205972 C828.876136,417.039159 829.433992,427.714984 831.810738,436.51879 C829.340234,428.143143 825.843089,419.975323 821.30055,412.205972 L821.30055,412.205972 Z M672.04166,346.086795 C671.808205,346.330564 671.570374,346.577458 671.328324,346.825915 C660.728441,357.684567 649.31209,366.141471 642.121846,377.692365 C636.859095,386.146144 639.435544,396.092226 640.12466,398.3424 C640.023559,398.467409 639.922926,398.592419 639.822449,398.717429 C637.393199,398.197076 625.93325,395.520307 622.967864,390.7465 C621.535722,388.441634 621.451653,386.16177 621.819494,384.314752 C635.181622,367.875981 652.378421,354.678085 672.04166,346.086795 L672.04166,346.086795 Z M779.625451,346.544643 C799.145711,355.273443 816.189217,368.558846 829.399614,385.046059 C829.577753,386.714938 829.330859,388.649463 828.118265,390.602739 C825.332112,395.087461 815.046941,397.722039 811.799815,398.454909 C811.57636,398.178325 811.351343,397.903303 811.126325,397.629845 C811.967015,394.590547 813.8656,385.42265 808.963658,377.547041 C801.774039,365.996148 790.357531,357.540806 779.758274,346.680591 C779.712958,346.635275 779.669205,346.589959 779.625451,346.544643 L779.625451,346.544643 Z M659.149413,379.926913 C658.353727,380.53321 657.563978,381.150445 656.780011,381.780181 C655.523039,382.789634 654.293881,383.820964 653.092851,384.87417 C653.394437,384.361631 653.74712,383.83659 654.156214,383.300611 C655.290052,381.817684 657.147383,380.725412 659.149413,379.926913 L659.149413,379.926913 Z M793.417143,380.447266 C794.831315,381.158258 796.082974,382.048952 796.929915,383.15685 C797.014296,383.266234 797.095553,383.37718 797.175246,383.485001 C795.940776,382.44117 794.687554,381.428591 793.417143,380.447266 L793.417143,380.447266 Z M664.519047,376.090679 C663.699296,375.170295 663.268325,373.78425 663.990413,371.702839 C665.878684,366.257105 673.985248,363.350631 681.326597,355.798484 C684.392928,358.923726 687.584738,361.248905 690.394955,363.295939 C681.407541,366.344612 672.702805,370.601191 664.519047,376.090679 L664.519047,376.090679 Z M761.045889,363.180305 C763.811728,361.166087 766.918218,358.864346 769.899699,355.798484 C777.203389,363.24281 785.219634,366.147722 787.094779,371.557515 C787.754205,373.459225 787.452619,374.77964 786.771316,375.695335 C778.701942,370.368361 770.04346,366.18835 761.045889,363.180305 L761.045889,363.180305 Z M685.984614,340.906707 C698.418701,337.067347 711.627379,335 725.315,335 C739.170603,335 752.535856,337.118914 765.102453,341.048905 C763.674217,342.772476 761.938145,344.738253 759.90205,346.825915 C755.525149,351.309074 751.009175,355.382827 746.709311,359.434703 C732.865584,356.789185 718.557446,356.78606 704.61168,359.512834 C700.241342,355.387515 695.640517,351.246569 691.184079,346.680591 C689.147827,344.594492 687.412224,342.628715 685.984614,340.906707 L685.984614,340.906707 Z M725.683935,342.147428 C727.914732,342.266187 729.629396,344.174147 729.510637,346.404007 C729.391722,348.63543 727.48423,350.349625 725.253433,350.230866 C723.022635,350.112106 721.307815,348.204146 721.42673,345.974286 C721.54549,343.742864 723.453137,342.028669 725.683935,342.147428 L725.683935,342.147428 Z" id="Page-1"></path>
        </g>
    </g>
</svg>