<?xml version="1.0" encoding="UTF-8" standalone="no"?>
<svg width="937px" height="138px" viewBox="0 0 937 138" version="1.1" xmlns="http://www.w3.org/2000/svg" xmlns:xlink="http://www.w3.org/1999/xlink">
    <!-- Generator: Sketch 3.6.1 (26313) - http://www.bohemiancoding.com/sketch -->
    <title>Group 3</title>
    <desc>Created with Sketch.</desc>
    <defs></defs>
    <g id="Page-1" stroke="none" stroke-width="1" fill="none" fill-rule="evenodd">
        <g id="Desktop-HD" transform="translate(-363.000000, -28.000000)">
            <g id="Group-3" transform="translate(-97.000000, 28.000000)">
                <text id="Majestic---Thai" font-family="OilCan, Oil Can" font-size="72" font-weight="normal" letter-spacing="20">
                    <tspan x="457.596217" y="97" fill="#FFFFFF">Majestic   </tspan>
                    <tspan x="1162.30022" y="97" fill="#93649C">Tha</tspan>
                    <tspan x="1381.34822" y="97" fill="#93649C">i</tspan>
                </text>
                <path d="M1072.0914,1.91197922 C1072.33699,0.711899554 1072.51368,0 1072.51368,0 C1072.51368,0 1072.55435,0.125797512 1072.63547,0.363812122 C1072.67807,0.236585093 1072.69944,0.170827303 1072.69944,0.170827303 C1072.69944,0.170827303 1072.79686,0.563944526 1072.94761,1.25726036 C1073.76007,3.53519598 1075.70622,8.66287409 1078.72428,14.6189574 C1085.25603,27.5089138 1092.29119,37.5448391 1096.72198,51.2553384 C1100.4037,62.6478755 1097.85916,76.3222795 1097.85916,76.3222795 C1097.85916,76.3222795 1106.477,73.097932 1108.52479,66.7500895 C1110.57185,60.402104 1108.14811,54.220157 1108.14811,54.220157 C1108.14811,54.220157 1115.83748,66.4738353 1111.75692,74.5732652 C1107.67637,82.6727666 1105.32052,82.6444621 1105.32052,82.6444621 C1105.32052,82.6444621 1110.72481,84.4235677 1115.08055,93.6264419 C1116.89461,97.4579768 1115.9597,127.101231 1118.87735,129.267379 C1121.79428,131.433526 1126.22578,131.924136 1124.23661,127.648522 C1122.24744,123.372979 1119.66787,125.528977 1118.97241,123.421726 C1116.89318,117.115482 1123.8971,112.133329 1124.10581,98.0437215 C1124.19086,92.2691154 1125.84339,111.27955 1124.91706,117.010984 C1123.99073,122.74249 1126.89694,122.560013 1130.10978,125.632974 C1133.32262,128.705936 1129.4665,139.020474 1119.22401,137.380175 C1106.54562,135.349545 1113.29794,99.4881056 1103.01114,91.0636035 C1094.25177,83.8902149 1088.61661,86.7669752 1088.81174,79.932811 C1088.979,74.0800103 1093.10959,67.4992994 1089.30564,57.9125999 C1087.12134,52.4068145 1080.57772,51.4511822 1080.57772,51.4511822 C1080.57772,51.4511822 1084.43085,50.7271318 1083.24592,44.1456347 C1082.08987,37.7242435 1077.15074,34.2762481 1072.64991,25.4396877 C1068.12606,34.4034751 1063.13068,37.8543296 1061.96713,44.3171768 C1060.7822,50.8986738 1064.63539,51.6220095 1064.63539,51.6220095 C1064.63539,51.6220095 1058.09192,52.5776418 1055.90712,58.0841419 C1052.1036,67.6705556 1056.2339,74.2512665 1056.4013,80.1039957 C1056.59672,86.9381599 1050.9612,84.0613996 1042.20198,91.2348597 C1031.9151,99.6592903 1038.66764,135.52073 1025.98882,137.551359 C1015.74676,139.19173 1011.89043,128.87712 1015.10334,125.804159 C1018.31618,122.731269 1021.22267,122.913675 1020.29634,117.18224 C1019.37002,111.450734 1021.02211,92.4403715 1021.10752,98.2149062 C1021.31602,112.304513 1028.31965,117.286738 1026.24035,123.59291 C1025.54546,125.700161 1022.96547,123.544164 1020.97644,127.819778 C1018.98748,132.095321 1023.41884,131.604711 1026.33598,129.438563 C1029.25305,127.272487 1028.31879,97.6291615 1030.13242,93.7976981 C1034.48859,84.5947524 1039.89238,82.8156468 1039.89238,82.8156468 C1039.89238,82.8156468 1037.53675,82.8440227 1033.45598,74.7445214 C1029.37528,66.64502 1037.06472,54.3909843 1037.06472,54.3909843 C1037.06472,54.3909843 1034.64091,60.5736461 1036.68833,66.9213457 C1038.73583,73.2691167 1047.35424,76.4935356 1047.35424,76.4935356 C1047.35424,76.4935356 1044.80949,62.8194176 1048.49128,51.4261657 C1052.92207,37.7163812 1059.95701,27.6797411 1066.48883,14.7897847 C1069.30934,9.22395959 1071.19359,4.38147015 1072.0914,1.91197922 L1072.0914,1.91197922 Z" id="Fill-1" fill="#FFFFFF"></path>
            </g>
        </g>
    </g>
</svg>