<?xml version="1.0" encoding="UTF-8" standalone="no"?>
<svg width="163px" height="105px" viewBox="0 0 163 105" version="1.1" xmlns="http://www.w3.org/2000/svg" xmlns:xlink="http://www.w3.org/1999/xlink">
    <!-- Generator: Sketch 3.6.1 (26313) - http://www.bohemiancoding.com/sketch -->
    <title>Page 1</title>
    <desc>Created with Sketch.</desc>
    <defs></defs>
    <g id="Page-1" stroke="none" stroke-width="1" fill="none" fill-rule="evenodd">
        <g id="Desktop-HD" transform="translate(-950.000000, -1914.000000)" fill="#8DBB60">
            <g id="Page-1" transform="translate(950.000000, 1914.000000)">
                <path d="M2.669,54.5126 C8.998,55.7526 17.608,59.4966 22.164,65.5326 C26.72,71.5696 27.698,77.3966 26.966,78.6776 C24.708,82.6296 18.183,75.1146 12.378,70.5976 C6.574,66.0806 -0.312,53.9296 2.669,54.5126 L2.669,54.5126 Z" id="Fill-1"></path>
                <path d="M23.659,42.3796 C28.939,45.0076 35.596,50.6306 38.083,57.6446 C40.57,64.6596 41.565,68.0736 40.955,70.8046 C39.96,75.2546 32.115,66.3096 28.135,60.5336 C24.156,54.7566 21.172,41.1416 23.659,42.3796 L23.659,42.3796 Z" id="Fill-2"></path>
                <path d="M55.925,63.6526 C50.998,60.5446 45.068,54.3276 43.456,47.1206 C41.843,39.9136 41.273,36.4256 42.214,33.7676 C43.749,29.4366 50.452,39.0666 53.7,45.1836 C56.948,51.2996 58.246,65.1166 55.925,63.6526 L55.925,63.6526 Z" id="Fill-3"></path>
                <path d="M106.243,14.2106 C109.962,17.3786 113.571,23.9946 113.275,30.5986 C112.98,37.2016 112.156,40.4176 110.785,42.6266 C108.552,46.2256 104.412,36.8126 103.12,30.9316 C101.827,25.0506 102.245,10.8056 106.243,14.2106 L106.243,14.2106 Z" id="Fill-4"></path>
                <path d="M69.461,27.6336 C76.051,23.2156 80.439,56.0416 72.389,57.1556 C64.338,58.2696 62.164,32.5266 69.461,27.6336 L69.461,27.6336 Z" id="Fill-5"></path>
                <path d="M118.489,38.0406 C117.723,31.9846 147.846,47.1916 145.113,52.2846 C142.38,57.3786 119.336,44.7466 118.489,38.0406 L118.489,38.0406 Z" id="Fill-6"></path>
                <path d="M84.675,88.1466 C79.296,85.6766 72.425,80.2526 69.669,73.3166 C66.912,66.3806 65.786,62.9966 66.291,60.2496 C67.113,55.7726 75.299,64.4806 79.499,70.1356 C83.699,75.7916 87.208,89.3106 84.675,88.1466 L84.675,88.1466 Z" id="Fill-7"></path>
                <path d="M50.873,65.9196 C55.918,68.8806 62.084,74.9176 63.974,82.0726 C65.865,89.2276 66.57,92.6976 65.731,95.3816 C64.365,99.7556 57.293,90.3296 53.811,84.3126 C50.328,78.2956 48.497,64.5246 50.873,65.9196 L50.873,65.9196 Z" id="Fill-8"></path>
                <path d="M39.468,104.2386 C33.053,108.8496 27.399,76.1716 35.402,74.8206 C43.405,73.4686 46.573,99.1336 39.468,104.2386 L39.468,104.2386 Z" id="Fill-9"></path>
                <path d="M124.98,7.7866 C130.336,4.03 133.902,32.8416 127.359,33.7886 C120.816,34.7366 119.049,11.9466 124.98,7.7866 L124.98,7.7866 Z" id="Fill-10"></path>
                <path d="M99.764,48.8986 C100.948,42.1576 127.168,57.0236 122.677,62.9406 C118.186,68.8586 98.454,56.3636 99.764,48.8986 L99.764,48.8986 Z" id="Fill-11"></path>
                <path d="M2.802,99.9476 L0,98.8786 C3.37,90.0286 40.851,65.9466 67.552,57.6396 C100.03,47.5346 132.212,30.2906 139.287,21.6236 L141.611,23.5206 C134.252,32.5356 102.392,49.9426 68.443,60.5046 C40.448,69.2136 5.319,93.3416 2.802,99.9476 L2.802,99.9476 Z" id="Fill-12"></path>
                <path d="M89.953,52.0276 C84.417,56.2166 81.171,27.0546 87.757,21.2916 C94.344,15.5286 95.357,47.9386 89.953,52.0276 L89.953,52.0276 Z" id="Fill-13"></path>
                <path d="M141.053,23.7746 C134.714,25.5996 138.628,2.973 146.359,0.216 C154.089,-2.54 147.242,21.9916 141.053,23.7746 L141.053,23.7746 Z" id="Fill-14"></path>
                <path d="M162.363,24.0686 C166.614,28.8926 143.123,31.6466 135.338,28.2976 C129.472,25.7746 158.212,19.3586 162.363,24.0686 L162.363,24.0686 Z" id="Fill-15"></path>
                <path d="M80.439,54.5896 C76.998,63.6206 99.467,83.4046 103.858,76.3606 C108.249,69.3166 81.903,50.7476 80.439,54.5896 L80.439,54.5896 Z" id="Fill-16"></path>
            </g>
        </g>
    </g>
</svg>