<?xml version="1.0" encoding="UTF-8" standalone="no"?>
<svg width="1441px" height="672px" viewBox="0 0 1441 672" version="1.1" xmlns="http://www.w3.org/2000/svg" xmlns:xlink="http://www.w3.org/1999/xlink">
    <!-- Generator: Sketch 3.6.1 (26313) - http://www.bohemiancoding.com/sketch -->
    <title>Group 5</title>
    <desc>Created with Sketch.</desc>
    <defs></defs>
    <g id="Page-1" stroke="none" stroke-width="1" fill="none" fill-rule="evenodd" fill-opacity="0.07">
        <g id="Desktop-HD" transform="translate(0.000000, -1764.000000)" fill="#93649C">
            <g id="Group-5" transform="translate(-2.000000, 1764.000000)">
                <path d="M346.08542,244.04492 C333.678014,247.521491 321.957596,250.810703 315.064825,247.667216 L314.985717,247.842085 C313.40981,245.481347 311.323867,242.951985 306.254734,241.001358 L305.238826,243.636891 C310.133089,245.520901 311.704833,247.958665 313.224532,250.317321 C314.026017,251.558062 314.856647,252.817538 316.091142,253.935454 C309.063055,254.468389 299.114231,253.793893 288.813586,251.247876 C288.699088,250.985572 288.594999,250.714941 288.472174,250.450555 L287.493738,250.906465 C274.834437,247.586026 261.854543,241.396896 253.308838,231.133724 C257.726374,228.641834 261.83997,224.107718 265.445612,218.405724 C272.912955,224.211807 280.607212,226.070836 288.197379,226.070836 C295.075579,226.070836 301.870507,224.559464 308.319859,223.125118 C317.515079,221.076647 326.204426,219.138511 333.455264,222.044675 L333.59058,221.705345 L333.823739,221.122446 L334.506563,219.421633 L334.639796,219.080221 C327.399368,216.184466 322.405179,208.806639 317.117459,200.997885 C308.861122,188.794494 299.613858,175.175493 279.476805,174.611331 C279.580894,173.091632 279.639184,171.607323 279.639184,170.172977 C279.639184,165.432765 279.083349,161.294188 278.027887,157.794717 C302.619947,152.810937 332.306122,171.215948 344.057767,184.020974 C342.404834,183.98142 340.939261,184.316586 339.513242,184.662162 C336.779866,185.320004 333.961136,186.000746 329.120999,183.985583 L328.036392,186.596135 C330.875939,187.776504 333.151324,188.163715 335.095706,188.163715 C336.584178,188.163715 337.8728,187.934719 339.073987,187.666169 L339.011533,187.845202 C346.177018,190.332929 352.386966,200.802198 358.969553,211.885591 C364.910951,221.901032 371.018892,232.164205 378.684004,238.434524 C368.80596,237.685084 357.302047,240.897269 346.08542,244.04492 L346.08542,244.04492 Z M290.639307,302.340989 C284.868614,298.993487 277.045287,297.8381 268.88263,296.630668 C259.181538,295.198404 249.149443,293.718258 241.765371,288.474256 L241.31987,289.100872 C243.00403,278.346399 243.151836,266.521892 240.430951,255.792401 C243.445367,257.972024 246.959411,259.273136 250.136206,260.44726 C254.210249,261.954468 258.063622,263.378405 259.966369,266.18048 L260.114175,266.080555 L262.449932,264.492157 C260.545103,261.690082 260.655438,257.586895 260.776181,253.246385 C260.878188,249.351375 260.994768,244.977557 259.568749,240.893106 C267.575272,246.971902 277.226402,251.027208 286.698498,253.535752 C289.656707,261.361161 289.302804,270.693778 288.955147,279.743273 C288.634553,288.064146 288.334777,296.029034 290.639307,302.340989 L290.639307,302.340989 Z M238.62813,250.009218 C237.986942,248.285504 237.245828,246.60759 236.41728,244.977557 C236.179957,243.978303 236.023824,242.881205 235.930143,241.702918 C235.94888,241.665446 235.971779,241.630056 235.990515,241.596747 C237.893261,238.091031 238.35958,234.270965 237.393634,230.176105 C240.070803,232.224576 242.91035,233.257139 245.881049,233.257139 L245.883131,233.257139 C246.68878,233.257139 247.486101,233.155132 248.281341,233.011489 C258.363399,237.724637 258.155221,245.577109 257.949124,253.169359 C257.876262,255.881917 257.824218,258.500796 258.207265,260.913578 C256.10675,259.662429 253.658577,258.738119 251.114643,257.797155 C246.386922,256.046378 241.559275,254.241475 238.62813,250.009218 L238.62813,250.009218 Z M231.042125,313.63256 C230.482127,312.075389 229.64317,310.832567 228.806294,309.623053 C227.20957,307.312278 225.5608,304.924477 225.696116,299.684638 L222.871141,299.613858 C222.731662,305.041057 224.268015,307.936812 225.846004,310.29755 L225.656562,310.303795 C225.916784,317.881472 218.384907,327.44933 210.413773,337.573024 C203.206653,346.726608 195.83299,356.117515 192.743629,365.525076 C189.887428,356.038407 182.746925,346.466385 175.777127,337.133768 C168.059971,326.810224 160.773743,317.061251 161.225489,309.496065 L161.033965,309.483574 C162.670244,307.16239 164.279459,304.30827 164.273214,298.876908 L161.448239,298.87899 C161.454485,304.12091 159.743262,306.464994 158.092411,308.734133 C157.222227,309.926993 156.345798,311.155243 155.746246,312.70825 C149.00128,298.529251 142.639362,268.649471 153.776882,247.138444 C157.955014,250.692041 163.746524,253.221403 170.08346,254.905563 C166.238414,271.053926 174.332372,283.309361 181.695626,294.367774 C186.916729,302.214 191.848464,309.625135 191.750621,317.431808 L194.577677,317.467198 L194.577677,317.465116 L194.941988,317.46928 C195.03775,309.668852 200.121456,302.353479 205.504937,294.611342 C213.294956,283.407205 221.919768,270.978982 217.806172,254.112405 C224.082737,252.14096 229.628597,249.263941 233.307101,245.287742 C233.488216,245.622908 233.683904,245.949748 233.854609,246.29116 C234.3584,248.125207 235.05996,249.71985 235.934307,251.089661 C243.609828,272.046935 237.789173,300.011478 231.042125,313.63256 L231.042125,313.63256 Z M145.728723,286.763033 C138.719372,292.179823 128.997462,294.190822 119.583655,296.128959 C111.431407,297.811037 103.624734,299.422334 98.0476471,303.169537 C99.9150033,296.765984 99.1634809,288.896857 98.3828136,280.684237 C97.5043027,271.459873 96.604974,261.939896 99.3112873,253.812629 C108.768811,251.416501 118.47823,247.481938 126.607579,241.548866 C125.506318,245.408485 125.641633,249.476282 125.779031,253.131887 C125.94141,257.507787 126.093379,261.640119 124.205206,264.442194 L124.355094,264.54212 C124.353012,264.54212 124.353012,264.544202 124.353012,264.544202 L126.697096,266.12219 C128.587351,263.318034 132.482361,261.929487 136.602202,260.45975 C140.28487,259.144066 144.417202,257.670166 147.696005,254.874336 C144.639952,265.179144 144.423447,276.437407 145.728723,286.763033 L145.728723,286.763033 Z M97.1878722,251.360293 C97.1670544,251.412337 97.152482,251.4623 97.133746,251.510181 C87.2348848,253.83761 77.7440525,254.449653 70.9699422,253.935454 C72.2044374,252.817538 73.0371492,251.558062 73.8344707,250.317321 C75.3562515,247.958665 76.9300767,245.520901 81.8201766,243.636891 L80.8042682,241.001358 C75.7351353,242.951985 73.6491923,245.481347 72.0774489,247.842085 L71.9962595,247.667216 C65.101406,250.810703 53.3809879,247.521491 40.9735826,244.04492 C29.7590368,240.895187 18.2551237,237.683002 8.37499861,238.434524 C16.0421922,232.164205 22.1480513,221.901032 28.0936133,211.885591 C34.6699545,200.802198 40.8819843,190.332929 48.047469,187.845202 L47.9850156,187.666169 C49.1862024,187.934719 50.4769056,188.163715 51.9632961,188.163715 C53.9055963,188.163715 56.1851448,187.776504 59.0246919,186.596135 L57.9421666,183.985583 C53.0978659,186.000746 50.2791366,185.320004 47.5457602,184.662162 C46.1197413,184.316586 44.6562503,183.98142 43.0012357,184.020974 C54.4739221,171.524052 83.0234451,153.693611 107.255358,157.476204 C105.873056,162.124818 105.329712,168.074543 105.698187,174.72791 C86.856001,176.064413 77.9334944,189.183787 69.9415432,200.997885 C64.6559052,208.806639 59.6637982,216.186547 52.4192058,219.080221 L52.5566032,219.419551 C52.5545215,219.419551 52.5524397,219.421633 52.5524397,219.421633 L53.6037383,222.044675 C60.8504125,219.142674 69.537678,221.076647 78.7412248,223.125118 C85.1884957,224.559464 91.9792601,226.070836 98.8616229,226.070836 C106.016699,226.070836 113.273782,224.409576 120.341423,219.350852 C124.40922,225.500429 128.795529,229.732686 133.192247,231.79573 C124.146916,242.235853 110.461298,248.343794 97.4127044,251.449809 L97.1878722,251.360293 Z M52.5524397,139.622864 C48.2847919,132.46987 44.1982589,125.622897 38.8231044,121.584245 C45.4910439,121.249079 52.6835918,117.961949 60.1904884,114.529095 C68.9735158,110.505015 78.031338,106.366438 86.9704988,106.593352 C91.7565097,115.132811 97.9477217,123.251751 105.500417,129.224376 C101.403476,129.207722 97.4127044,130.556715 93.8403709,131.778719 C89.6310129,133.215147 85.656896,134.574549 82.46761,133.508678 L81.570363,136.187928 L81.5724448,136.187928 L81.514155,136.366961 C84.7034411,137.436996 87.0391976,140.921894 89.5165151,144.617053 C91.7294466,147.920837 94.2255001,151.622241 97.7811794,154.089149 C88.4152538,154.522159 78.9140125,157.380442 70.2309105,161.412849 C62.6782148,156.601857 57.5278925,147.974963 52.5524397,139.622864 L52.5524397,139.622864 Z M78.3311143,73.6929097 C79.6613713,74.671346 81.0540817,75.2355083 82.4218108,75.7705256 C85.034444,76.8010064 87.7345119,77.8585503 90.5490777,82.2844134 L92.9306333,80.7730415 C90.0203057,76.1889632 87.1307959,74.6442829 84.5035902,73.5638394 L84.6576419,73.4514233 C80.2151246,67.3080922 81.1290258,55.1692364 82.0949714,42.3163303 C82.9714006,30.7020829 83.8519933,18.7943046 81.1706614,9.25975486 C88.8295279,15.5384016 100.096118,19.5041914 111.089995,23.3596469 C123.251751,27.6231311 134.739009,31.6492925 138.584056,38.1798346 L138.748517,38.0840727 C138.688145,40.9215381 138.942122,44.1899318 141.977356,48.6928206 L144.319358,47.1148318 C141.392376,42.7680764 141.504793,39.8681577 141.608882,37.0660826 C141.667171,35.5880192 141.706725,34.0787291 141.33825,32.4549412 C153.225211,39.4996827 171.646877,56.7930244 177.786044,77.2465072 C177.831843,79.1513353 178.266935,81.1769067 179.216227,83.3398755 C179.307825,83.8873835 179.361951,84.4411369 179.428568,84.9948902 C174.351108,85.0656707 168.334766,86.7248489 162.051955,89.4561435 C156.458214,73.1225021 142.578991,67.3372371 130.034188,62.1536064 C121.321941,58.5562915 113.096831,55.1588275 108.820856,48.6220401 L108.516916,48.821891 L106.154096,50.3686531 C110.423826,56.8950316 110.280183,65.8008839 110.134458,75.2334265 C109.907545,89.4623888 109.674385,105.306812 124.251005,117.200018 C119.777261,122.421121 116.600465,127.60267 115.501286,132.170094 C93.6238659,121.265733 80.5502911,90.4470705 78.3311143,73.6929097 L78.3311143,73.6929097 Z M179.043439,24.8356285 C184.618444,18.6548254 189.949881,12.7300812 192.227348,6.40979884 C194.515224,12.6780367 199.777962,18.5798813 205.271778,24.7315395 C211.652432,31.88037 218.232937,39.270687 220.691518,47.7726741 C214.629376,54.607156 209.089761,62.7073597 205.552818,71.5236955 C204.155944,67.8014739 201.574538,64.5809612 199.247108,61.6810424 C196.411725,58.1503446 193.732475,54.8153339 193.732475,51.4719962 L193.532624,51.4719962 L190.9075,51.4719962 L190.703486,51.4719962 C190.703486,54.8194975 188.011745,58.1378539 185.157625,61.6539793 C182.782315,64.583043 180.134291,67.8451913 178.747826,71.6298663 C175.20672,62.7635677 169.644205,54.6217284 163.552918,47.7581017 C166.019827,39.2873412 172.63364,31.9407416 179.043439,24.8356285 L179.043439,24.8356285 Z M242.920759,32.4528594 C242.552284,34.0787291 242.591838,35.5880192 242.650127,37.0660826 C242.754216,39.8660759 242.866633,42.7680764 239.937569,47.1148318 L242.281653,48.6928206 C245.316887,44.1899318 245.572946,40.9194563 245.510492,38.0819909 L245.677035,38.1798346 C249.522081,31.6492925 261.00934,27.6231311 273.171096,23.3596469 C284.162891,19.5041914 295.427399,15.5384016 303.088348,9.25975486 C300.407016,18.7943046 301.28969,30.7041647 302.161956,42.3163303 C303.129983,55.1671546 304.043884,67.3060104 299.601367,73.4514233 L299.753337,73.5638394 C297.128213,74.6422011 294.238703,76.1889632 291.328376,80.7730415 L293.712013,82.2844134 C296.524497,77.8585503 299.224565,76.8010064 301.837198,75.7705256 C303.204927,75.2355083 304.597638,74.671346 305.929977,73.6929097 C303.733699,90.2472197 290.945328,120.535028 269.540472,131.778719 C268.324713,127.175905 265.079219,121.981865 260.532613,116.756599 C274.570051,104.917519 274.345219,89.2896011 274.124551,75.2355083 C273.976744,65.8029657 273.835183,56.8950316 278.106995,50.3686531 L275.742093,48.821891 C275.742093,48.821891 275.742093,48.8239727 275.740011,48.8239727 L275.438153,48.6220401 C271.162178,55.1588275 262.937068,58.5562915 254.226903,62.1536064 C241.771617,67.3018469 227.998564,73.0454763 222.327797,89.1188952 C216.182384,86.5270798 210.313848,84.9782359 205.36754,84.9782359 C205.171853,84.9782359 204.99282,85.0052991 204.799214,85.0094626 C204.842931,84.6451512 204.878322,84.2808398 204.93453,83.920692 C206.114899,81.4038207 206.59579,79.0659824 206.583299,76.8842776 C212.828637,56.5910918 231.106661,39.4580471 242.920759,32.4528594 L242.920759,32.4528594 Z M265.087546,144.920993 C268.901366,142.312523 270.046345,138.910895 270.083817,135.823617 C277.461643,128.033598 284.416868,131.075078 291.765549,134.320572 C294.467699,135.51135 297.082414,136.662574 299.632594,137.183018 C297.669476,138.890078 295.958253,141.161299 294.192904,143.5262 C289.658789,149.611242 285.339096,155.361116 276.262538,153.42298 C273.787302,148.678604 270.010954,145.743295 265.087546,144.920993 L265.087546,144.920993 Z M279.231155,177.455041 C298.008806,177.910951 306.539938,190.412036 314.779621,202.580037 C318.69753,208.369466 322.46555,213.923653 327.184944,217.820744 C321.074922,217.400225 314.525644,218.847062 307.705734,220.366761 C294.136696,223.387422 280.176283,226.474701 266.915348,215.974206 C273.335556,204.815868 277.890489,190.085197 279.231155,177.455041 L279.231155,177.455041 Z M271.299576,75.2771438 C271.522326,89.2833558 271.726341,103.689269 258.642357,114.660247 C249.763568,105.154842 236.975197,95.8513699 224.913367,90.2617921 C230.11157,75.2250994 242.864551,69.9040712 255.305265,64.7662395 C261.762944,62.0973983 267.962483,59.5284825 272.721431,55.6792724 C271.09348,61.5790353 271.191323,68.2886103 271.299576,75.2771438 L271.299576,75.2771438 Z M181.858005,82.3239672 C181.529084,80.5315551 181.106482,78.7537155 180.596447,77.002939 C180.519421,71.8796798 183.862758,67.734857 187.351821,63.4339007 C189.235831,61.1127167 191.044897,58.8623131 192.214857,56.5140659 C193.378572,58.8643949 195.170984,61.118962 197.042504,63.450555 C200.41915,67.6557494 203.656317,71.7152193 203.768733,76.6532 C203.160854,78.6891803 202.669554,80.7501419 202.309406,82.8381667 C201.89305,83.7021052 201.403832,84.5889432 200.785543,85.5132533 C196.900943,86.4854442 194.117604,88.7837287 192.577087,92.3019359 C190.9304,88.5464059 187.857693,86.1898316 183.54841,85.3467109 C182.851014,84.2995759 182.295179,83.2961582 181.858005,82.3239672 L181.858005,82.3239672 Z M111.537578,55.6813542 C116.298607,59.5284825 122.496065,62.0973983 128.953744,64.7662395 C141.496465,69.9477885 154.35978,75.3062888 159.472631,90.6281853 C147.458682,96.3343427 134.83269,105.635733 126.122524,115.089093 C112.516014,104.06399 112.736683,89.4644706 112.957351,75.2771438 C113.067686,68.2906921 113.167611,61.5790353 111.537578,55.6813542 L111.537578,55.6813542 Z M118.182618,215.868035 C118.394959,216.23651 118.611464,216.584167 118.823806,216.942233 C105.958409,226.23946 92.4747236,223.285415 79.3532679,220.366761 C72.5312768,218.847062 65.9819987,217.400225 59.8740579,217.820744 C64.5934519,213.923653 68.3635544,208.369466 72.2814633,202.580037 C80.2338606,190.832556 88.450644,178.776971 105.902201,177.540394 C107.00138,189.500217 110.944271,203.346132 118.182618,215.868035 L118.182618,215.868035 Z M115.072439,136.169192 C115.193182,139.162791 116.394369,142.410367 120.066628,144.920993 C115.449241,145.691251 111.758246,148.299721 109.289256,152.581941 C109.037361,153.017033 108.80212,153.483351 108.579369,153.962161 C99.8317321,154.880225 95.9367228,149.124105 91.8626805,143.043228 C90.2638739,140.657508 88.7087847,138.367551 86.8872277,136.581384 C89.4165897,136.258708 92.0396317,135.378116 94.7521903,134.451724 C101.509646,132.14303 108.47528,129.794783 115.072439,136.169192 L115.072439,136.169192 Z M128.599842,253.025716 C128.325047,245.547964 128.066906,237.83289 137.45365,233.111414 C138.059448,233.196767 138.663164,233.257139 139.264798,233.257139 L139.268961,233.257139 C142.243824,233.255057 145.079208,232.222494 147.76054,230.174023 C146.792512,234.270965 147.256749,238.091031 149.161577,241.596747 C149.575851,242.36076 150.050497,243.091465 150.579269,243.788861 C149.161577,252.957017 142.312523,255.423926 135.654992,257.799236 C133.050686,258.72771 130.542142,259.639529 128.4104,260.901088 C128.78512,258.452915 128.703931,255.788237 128.599842,253.025716 L128.599842,253.025716 Z M203.187917,292.997963 C199.197146,298.737429 195.374999,304.252062 193.43478,310.056063 C191.629877,304.210427 187.920147,298.618767 184.048037,292.802275 C176.734746,281.814644 169.265321,270.510581 172.823082,255.573814 C179.397342,257.049796 186.360894,257.68682 192.577087,257.68682 C199.663464,257.68682 207.722032,256.860354 215.06655,254.905563 C218.801262,270.454373 210.909237,281.887506 203.187917,292.997963 L203.187917,292.997963 Z M245.883131,230.430082 C241.492658,230.432164 237.329099,227.451056 233.509034,221.567947 L231.137887,223.106382 C235.359736,229.603616 236.154976,235.372227 233.509034,240.247754 C228.764659,248.989146 212.312356,254.863927 192.577087,254.863927 C172.837655,254.863927 156.389515,248.989146 151.64514,240.247754 C148.995035,235.372227 149.792356,229.603616 154.014205,223.106382 L151.64514,221.567947 C147.822993,227.446892 143.661516,230.430082 139.268961,230.430082 L139.264798,230.430082 C133.196411,230.430082 126.578434,224.757233 120.626627,214.458671 C110.267692,196.519977 104.068153,167.283467 111.733265,153.993387 C114.96835,148.395482 120.458003,146.409465 127.946163,148.091543 L128.564452,145.337348 C120.913912,143.615717 117.345742,139.943458 117.957786,134.418415 C119.841796,117.426932 159.135382,87.8052924 179.782471,87.8052924 C187.441337,87.8052924 191.163559,91.7919 191.163559,99.9899473 L193.990615,99.9899473 C193.990615,91.7919 197.712837,87.8052924 205.36754,87.8052924 C226.01671,87.8052924 265.308215,117.426932 267.196389,134.416334 C267.808432,139.943458 264.240262,143.615717 256.587641,145.337348 L257.205929,148.091543 C258.93797,147.70225 260.580494,147.506563 262.091865,147.506563 C274.901054,147.506563 276.812128,161.710544 276.812128,170.175059 C276.81421,182.324323 273.037862,197.544213 266.95282,209.893328 C260.526367,222.946085 252.846683,230.430082 245.883131,230.430082 L245.883131,230.430082 Z M323.187928,117.116747 C330.605308,120.751534 337.714585,124.230187 344.374197,124.736059 C339.336291,128.416645 335.888864,134.566222 332.291549,140.984348 C328.028065,148.595333 323.614693,156.445723 316.172331,161.119318 C307.299787,157.076503 297.607022,154.282755 288.097454,154.055841 C291.561535,151.76172 294.151269,148.314293 296.459962,145.216605 C299.153784,141.6068 301.699801,138.194763 304.936968,137.334988 L304.884923,137.145546 L304.887005,137.145546 L304.158382,134.41217 C300.923297,135.274027 297.028288,133.554477 292.908446,131.735002 C289.034255,130.025861 284.660436,128.096051 280.080521,128.118951 C286.496566,122.720897 291.888374,115.796898 296.218476,108.452381 L296.218476,108.473198 C296.351709,108.471117 296.487025,108.471117 296.620259,108.471117 C305.542766,108.471117 314.511071,112.863671 323.187928,117.116747 L323.187928,117.116747 Z M361.398989,210.445 C355.513799,200.531566 349.909649,191.107351 343.287508,186.852194 C344.48245,186.779331 345.716945,186.935465 347.224153,187.576653 L347.777906,186.277623 L348.914558,185.438665 C343.832934,178.537567 332.622552,169.223686 319.136785,162.528683 C326.327251,157.38877 330.788505,149.448863 334.758458,142.364567 C339.269674,134.312245 343.528995,126.705423 350.829795,124.663197 L350.702807,124.196878 C350.748606,124.182306 350.796487,124.173979 350.842286,124.161488 L350.080354,121.440602 C342.66922,123.5203 333.811248,119.177708 324.432832,114.579058 C315.828838,110.363454 306.970866,106.066661 297.792301,105.67945 C305.03273,92.433088 308.890267,78.3352778 309.096363,69.7479377 L307.682835,69.7125475 L306.485812,68.9631069 C305.619791,70.3537355 304.695481,71.1885291 303.675409,71.8130629 C306.658599,64.5289167 305.846705,53.5954112 304.978603,42.1039888 C303.879424,27.4857337 302.74069,12.3699333 308.900676,2.954045 L306.535774,1.40728289 C300.375789,10.8273348 286.069801,15.8423414 272.236377,20.6908057 C261.359079,24.5067073 251.014717,28.143576 245.541719,33.7914436 C245.704098,32.6089928 246.101718,31.4286239 247.026028,30.0754673 L245.862313,29.2781458 L245.262761,27.9978514 C239.398388,30.7333096 230.861011,36.9349305 222.889877,45.3703007 C219.960814,36.9619936 213.58016,29.7965088 207.380621,22.8516927 C200.423314,15.0575105 193.857381,7.6984203 193.857381,0 L191.032407,0 C191.032407,0.0478809267 191.038652,0.0957618533 191.038652,0.14364278 L190.553597,0.14364278 C190.553597,7.85247197 183.941866,15.1824173 176.942924,22.943291 C170.71424,29.8506351 164.300277,36.9765661 161.356641,45.3598918 C153.385508,36.9307669 144.858539,30.7312278 138.996248,27.9978514 L138.396696,29.2781458 L137.230899,30.0754673 C138.155209,31.4286239 138.554911,32.6089928 138.719372,33.7914436 C133.244292,28.143576 122.89993,24.5067073 112.024714,20.6928874 C98.1912899,15.8423414 83.8811382,10.8273348 77.7232347,1.40936467 L75.360415,2.954045 C81.5183185,12.3699333 80.3795852,27.4857337 79.2804057,42.1039888 C78.4123037,53.5954112 77.6004097,64.5289167 80.5815178,71.8130629 C79.5635277,71.1906108 78.6412994,70.3537355 77.7773609,68.9651886 L76.578256,69.7125475 L75.1647278,69.7479377 C75.3583332,77.9210037 78.8598862,91.0882585 85.4424728,103.762132 C76.4117136,103.964064 67.5828871,108.036025 59.0122012,111.958097 C49.5151235,116.304853 40.5468178,120.40804 33.1898093,118.140982 L32.3570975,120.838968 C32.4028967,120.853541 32.446614,120.86395 32.494495,120.87644 L32.352934,121.338595 C39.7182696,123.61398 44.7707482,132.093068 50.1250849,141.071782 C54.965222,149.18864 59.9614926,157.567803 67.2935198,162.838868 C54.0846293,169.506808 43.149042,178.643737 38.1465261,185.438665 L39.2852594,186.277623 L39.836931,187.576653 C41.3420575,186.935465 42.5786345,186.779331 43.7694123,186.850112 C37.1493538,191.107351 31.5452036,200.531566 25.6641767,210.442918 C18.1801797,223.050174 10.4463691,236.082113 0,240.268572 L1.04921683,242.891614 C11.4976677,238.703074 26.0971868,242.804179 40.2116513,246.761642 C49.2715553,249.305576 57.9796386,251.747504 65.0764247,251.747504 C66.6669042,251.747504 68.1720307,251.61427 69.5876407,251.343638 C68.7778285,252.215904 67.772329,252.954936 66.2443029,253.529507 L66.7397664,254.851437 L66.4961982,256.242065 C68.9402073,256.675075 71.9983413,256.91448 75.48324,256.91448 C81.4392109,256.91448 88.6338406,256.210839 96.1282465,254.566233 C93.8549434,262.835061 94.7209636,272.026117 95.5724114,280.952787 C96.5612566,291.347112 97.4959756,301.166865 92.9389604,307.370568 L95.2143454,309.044319 C95.245572,309.004765 95.2663898,308.961047 95.2955348,308.925657 L95.6827457,309.208779 C100.25017,303.000913 109.917953,301.00865 120.154063,298.897726 C129.343037,297.005388 138.817215,295.046434 146.176306,289.939829 C148.045743,301.762254 151.776292,312.02959 155.207065,317.71493 L156.416579,316.986307 L157.825943,316.973816 C157.815534,315.337538 158.144455,314.134269 158.666982,313.062153 C160.059693,320.806372 166.613134,329.593563 173.514233,338.826255 C182.288933,350.567491 191.365491,362.71051 191.221849,373.96461 L194.048905,374 C194.188384,362.747982 203.564719,350.840204 212.63295,339.321718 C219.760963,330.26806 226.535073,321.645329 228.125552,313.934418 C228.618934,315.021107 228.920792,316.232703 228.866666,317.8669 L230.276031,317.914781 L231.46889,318.67463 C235.168212,312.872711 238.896679,302.817716 240.94515,291.32213 C248.770559,296.503679 258.777673,297.996315 268.472519,299.428579 C278.802309,300.954524 288.559609,302.397197 293.493426,308.307369 L295.66264,306.498302 C295.631414,306.458748 295.596023,306.42544 295.564797,306.39005 L295.935354,306.075701 C290.997373,300.159284 291.378338,290.295813 291.780122,279.853607 C292.111125,271.180914 292.446291,262.26049 289.962728,254.341401 C297.804791,256.144222 305.369978,256.91448 311.579926,256.91448 C315.060661,256.91448 318.120877,256.675075 320.564886,256.242065 L320.319236,254.851437 L320.814699,253.529507 C319.286673,252.954936 318.285337,252.215904 317.473443,251.343638 C318.889053,251.61427 320.392098,251.747504 321.984659,251.747504 C329.081445,251.747504 337.789529,249.305576 346.847351,246.763724 C360.965979,242.802097 375.559253,238.703074 386.011867,242.891614 L387.063166,240.268572 C376.614715,236.082113 368.878823,223.052256 361.398989,210.445 L361.398989,210.445 Z M193.382736,203.866577 C173.097877,203.866577 156.595612,188.430182 156.595612,169.452681 C156.595612,150.477262 173.097877,135.038786 193.382736,135.038786 C213.667594,135.038786 230.167778,150.477262 230.167778,169.452681 C230.167778,188.430182 213.667594,203.866577 193.382736,203.866577 L193.382736,203.866577 Z M193.382736,132.213811 C171.538624,132.213811 153.768555,148.920091 153.768555,169.452681 C153.768555,189.985272 171.538624,206.691552 193.382736,206.691552 C215.224765,206.691552 232.994835,189.985272 232.994835,169.452681 C232.994835,148.920091 215.224765,132.213811 193.382736,132.213811 L193.382736,132.213811 Z M193.382736,223.156345 C161.754261,223.156345 136.023467,199.063912 136.023467,169.450599 C136.023467,139.837287 161.754261,115.746936 193.382736,115.746936 C225.009129,115.746936 250.739922,139.837287 250.739922,169.450599 C250.739922,199.063912 225.009129,223.156345 193.382736,223.156345 L193.382736,223.156345 Z M193.382736,112.919879 C160.195008,112.919879 133.198493,138.280116 133.198493,169.450599 C133.198493,200.621083 160.195008,225.98132 193.382736,225.98132 C226.5663,225.98132 253.564897,200.621083 253.564897,169.450599 C253.564897,138.280116 226.5663,112.919879 193.382736,112.919879 L193.382736,112.919879 Z" id="Page-1"></path>
                <path d="M889.08542,542.04492 C876.678014,545.521491 864.957596,548.810703 858.064825,545.667216 L857.985717,545.842085 C856.40981,543.481347 854.323867,540.951985 849.254734,539.001358 L848.238826,541.636891 C853.133089,543.520901 854.704833,545.958665 856.224532,548.317321 C857.026017,549.558062 857.856647,550.817538 859.091142,551.935454 C852.063055,552.468389 842.114231,551.793893 831.813586,549.247876 C831.699088,548.985572 831.594999,548.714941 831.472174,548.450555 L830.493738,548.906465 C817.834437,545.586026 804.854543,539.396896 796.308838,529.133724 C800.726374,526.641834 804.83997,522.107718 808.445612,516.405724 C815.912955,522.211807 823.607212,524.070836 831.197379,524.070836 C838.075579,524.070836 844.870507,522.559464 851.319859,521.125118 C860.515079,519.076647 869.204426,517.138511 876.455264,520.044675 L876.59058,519.705345 L876.823739,519.122446 L877.506563,517.421633 L877.639796,517.080221 C870.399368,514.184466 865.405179,506.806639 860.117459,498.997885 C851.861122,486.794494 842.613858,473.175493 822.476805,472.611331 C822.580894,471.091632 822.639184,469.607323 822.639184,468.172977 C822.639184,463.432765 822.083349,459.294188 821.027887,455.794717 C845.619947,450.810937 875.306122,469.215948 887.057767,482.020974 C885.404834,481.98142 883.939261,482.316586 882.513242,482.662162 C879.779866,483.320004 876.961136,484.000746 872.120999,481.985583 L871.036392,484.596135 C873.875939,485.776504 876.151324,486.163715 878.095706,486.163715 C879.584178,486.163715 880.8728,485.934719 882.073987,485.666169 L882.011533,485.845202 C889.177018,488.332929 895.386966,498.802198 901.969553,509.885591 C907.910951,519.901032 914.018892,530.164205 921.684004,536.434524 C911.80596,535.685084 900.302047,538.897269 889.08542,542.04492 L889.08542,542.04492 Z M833.639307,600.340989 C827.868614,596.993487 820.045287,595.8381 811.88263,594.630668 C802.181538,593.198404 792.149443,591.718258 784.765371,586.474256 L784.31987,587.100872 C786.00403,576.346399 786.151836,564.521892 783.430951,553.792401 C786.445367,555.972024 789.959411,557.273136 793.136206,558.44726 C797.210249,559.954468 801.063622,561.378405 802.966369,564.18048 L803.114175,564.080555 L805.449932,562.492157 C803.545103,559.690082 803.655438,555.586895 803.776181,551.246385 C803.878188,547.351375 803.994768,542.977557 802.568749,538.893106 C810.575272,544.971902 820.226402,549.027208 829.698498,551.535752 C832.656707,559.361161 832.302804,568.693778 831.955147,577.743273 C831.634553,586.064146 831.334777,594.029034 833.639307,600.340989 L833.639307,600.340989 Z M781.62813,548.009218 C780.986942,546.285504 780.245828,544.60759 779.41728,542.977557 C779.179957,541.978303 779.023824,540.881205 778.930143,539.702918 C778.94888,539.665446 778.971779,539.630056 778.990515,539.596747 C780.893261,536.091031 781.35958,532.270965 780.393634,528.176105 C783.070803,530.224576 785.91035,531.257139 788.881049,531.257139 L788.883131,531.257139 C789.68878,531.257139 790.486101,531.155132 791.281341,531.011489 C801.363399,535.724637 801.155221,543.577109 800.949124,551.169359 C800.876262,553.881917 800.824218,556.500796 801.207265,558.913578 C799.10675,557.662429 796.658577,556.738119 794.114643,555.797155 C789.386922,554.046378 784.559275,552.241475 781.62813,548.009218 L781.62813,548.009218 Z M774.042125,611.63256 C773.482127,610.075389 772.64317,608.832567 771.806294,607.623053 C770.20957,605.312278 768.5608,602.924477 768.696116,597.684638 L765.871141,597.613858 C765.731662,603.041057 767.268015,605.936812 768.846004,608.29755 L768.656562,608.303795 C768.916784,615.881472 761.384907,625.44933 753.413773,635.573024 C746.206653,644.726608 738.83299,654.117515 735.743629,663.525076 C732.887428,654.038407 725.746925,644.466385 718.777127,635.133768 C711.059971,624.810224 703.773743,615.061251 704.225489,607.496065 L704.033965,607.483574 C705.670244,605.16239 707.279459,602.30827 707.273214,596.876908 L704.448239,596.87899 C704.454485,602.12091 702.743262,604.464994 701.092411,606.734133 C700.222227,607.926993 699.345798,609.155243 698.746246,610.70825 C692.00128,596.529251 685.639362,566.649471 696.776882,545.138444 C700.955014,548.692041 706.746524,551.221403 713.08346,552.905563 C709.238414,569.053926 717.332372,581.309361 724.695626,592.367774 C729.916729,600.214 734.848464,607.625135 734.750621,615.431808 L737.577677,615.467198 L737.577677,615.465116 L737.941988,615.46928 C738.03775,607.668852 743.121456,600.353479 748.504937,592.611342 C756.294956,581.407205 764.919768,568.978982 760.806172,552.112405 C767.082737,550.14096 772.628597,547.263941 776.307101,543.287742 C776.488216,543.622908 776.683904,543.949748 776.854609,544.29116 C777.3584,546.125207 778.05996,547.71985 778.934307,549.089661 C786.609828,570.046935 780.789173,598.011478 774.042125,611.63256 L774.042125,611.63256 Z M688.728723,584.763033 C681.719372,590.179823 671.997462,592.190822 662.583655,594.128959 C654.431407,595.811037 646.624734,597.422334 641.047647,601.169537 C642.915003,594.765984 642.163481,586.896857 641.382814,578.684237 C640.504303,569.459873 639.604974,559.939896 642.311287,551.812629 C651.768811,549.416501 661.47823,545.481938 669.607579,539.548866 C668.506318,543.408485 668.641633,547.476282 668.779031,551.131887 C668.94141,555.507787 669.093379,559.640119 667.205206,562.442194 L667.355094,562.54212 C667.353012,562.54212 667.353012,562.544202 667.353012,562.544202 L669.697096,564.12219 C671.587351,561.318034 675.482361,559.929487 679.602202,558.45975 C683.28487,557.144066 687.417202,555.670166 690.696005,552.874336 C687.639952,563.179144 687.423447,574.437407 688.728723,584.763033 L688.728723,584.763033 Z M640.187872,549.360293 C640.167054,549.412337 640.152482,549.4623 640.133746,549.510181 C630.234885,551.83761 620.744052,552.449653 613.969942,551.935454 C615.204437,550.817538 616.037149,549.558062 616.834471,548.317321 C618.356251,545.958665 619.930077,543.520901 624.820177,541.636891 L623.804268,539.001358 C618.735135,540.951985 616.649192,543.481347 615.077449,545.842085 L614.996259,545.667216 C608.101406,548.810703 596.380988,545.521491 583.973583,542.04492 C572.759037,538.895187 561.255124,535.683002 551.374999,536.434524 C559.042192,530.164205 565.148051,519.901032 571.093613,509.885591 C577.669954,498.802198 583.881984,488.332929 591.047469,485.845202 L590.985016,485.666169 C592.186202,485.934719 593.476906,486.163715 594.963296,486.163715 C596.905596,486.163715 599.185145,485.776504 602.024692,484.596135 L600.942167,481.985583 C596.097866,484.000746 593.279137,483.320004 590.54576,482.662162 C589.119741,482.316586 587.65625,481.98142 586.001236,482.020974 C597.473922,469.524052 626.023445,451.693611 650.255358,455.476204 C648.873056,460.124818 648.329712,466.074543 648.698187,472.72791 C629.856001,474.064413 620.933494,487.183787 612.941543,498.997885 C607.655905,506.806639 602.663798,514.186547 595.419206,517.080221 L595.556603,517.419551 C595.554521,517.419551 595.55244,517.421633 595.55244,517.421633 L596.603738,520.044675 C603.850412,517.142674 612.537678,519.076647 621.741225,521.125118 C628.188496,522.559464 634.97926,524.070836 641.861623,524.070836 C649.016699,524.070836 656.273782,522.409576 663.341423,517.350852 C667.40922,523.500429 671.795529,527.732686 676.192247,529.79573 C667.146916,540.235853 653.461298,546.343794 640.412704,549.449809 L640.187872,549.360293 Z M595.55244,437.622864 C591.284792,430.46987 587.198259,423.622897 581.823104,419.584245 C588.491044,419.249079 595.683592,415.961949 603.190488,412.529095 C611.973516,408.505015 621.031338,404.366438 629.970499,404.593352 C634.75651,413.132811 640.947722,421.251751 648.500417,427.224376 C644.403476,427.207722 640.412704,428.556715 636.840371,429.778719 C632.631013,431.215147 628.656896,432.574549 625.46761,431.508678 L624.570363,434.187928 L624.572445,434.187928 L624.514155,434.366961 C627.703441,435.436996 630.039198,438.921894 632.516515,442.617053 C634.729447,445.920837 637.2255,449.622241 640.781179,452.089149 C631.415254,452.522159 621.914012,455.380442 613.230911,459.412849 C605.678215,454.601857 600.527893,445.974963 595.55244,437.622864 L595.55244,437.622864 Z M621.331114,371.69291 C622.661371,372.671346 624.054082,373.235508 625.421811,373.770526 C628.034444,374.801006 630.734512,375.85855 633.549078,380.284413 L635.930633,378.773042 C633.020306,374.188963 630.130796,372.644283 627.50359,371.563839 L627.657642,371.451423 C623.215125,365.308092 624.129026,353.169236 625.094971,340.31633 C625.971401,328.702083 626.851993,316.794305 624.170661,307.259755 C631.829528,313.538402 643.096118,317.504191 654.089995,321.359647 C666.251751,325.623131 677.739009,329.649293 681.584056,336.179835 L681.748517,336.084073 C681.688145,338.921538 681.942122,342.189932 684.977356,346.692821 L687.319358,345.114832 C684.392376,340.768076 684.504793,337.868158 684.608882,335.066083 C684.667171,333.588019 684.706725,332.078729 684.33825,330.454941 C696.225211,337.499683 714.646877,354.793024 720.786044,375.246507 C720.831843,377.151335 721.266935,379.176907 722.216227,381.339876 C722.307825,381.887384 722.361951,382.441137 722.428568,382.99489 C717.351108,383.065671 711.334766,384.724849 705.051955,387.456143 C699.458214,371.122502 685.578991,365.337237 673.034188,360.153606 C664.321941,356.556292 656.096831,353.158828 651.820856,346.62204 L651.516916,346.821891 L649.154096,348.368653 C653.423826,354.895032 653.280183,363.800884 653.134458,373.233426 C652.907545,387.462389 652.674385,403.306812 667.251005,415.200018 C662.777261,420.421121 659.600465,425.60267 658.501286,430.170094 C636.623866,419.265733 623.550291,388.44707 621.331114,371.69291 L621.331114,371.69291 Z M722.043439,322.835628 C727.618444,316.654825 732.949881,310.730081 735.227348,304.409799 C737.515224,310.678037 742.777962,316.579881 748.271778,322.73154 C754.652432,329.88037 761.232937,337.270687 763.691518,345.772674 C757.629376,352.607156 752.089761,360.70736 748.552818,369.523696 C747.155944,365.801474 744.574538,362.580961 742.247108,359.681042 C739.411725,356.150345 736.732475,352.815334 736.732475,349.471996 L736.532624,349.471996 L733.9075,349.471996 L733.703486,349.471996 C733.703486,352.819497 731.011745,356.137854 728.157625,359.653979 C725.782315,362.583043 723.134291,365.845191 721.747826,369.629866 C718.20672,360.763568 712.644205,352.621728 706.552918,345.758102 C709.019827,337.287341 715.63364,329.940742 722.043439,322.835628 L722.043439,322.835628 Z M785.920759,330.452859 C785.552284,332.078729 785.591838,333.588019 785.650127,335.066083 C785.754216,337.866076 785.866633,340.768076 782.937569,345.114832 L785.281653,346.692821 C788.316887,342.189932 788.572946,338.919456 788.510492,336.081991 L788.677035,336.179835 C792.522081,329.649293 804.00934,325.623131 816.171096,321.359647 C827.162891,317.504191 838.427399,313.538402 846.088348,307.259755 C843.407016,316.794305 844.28969,328.704165 845.161956,340.31633 C846.129983,353.167155 847.043884,365.30601 842.601367,371.451423 L842.753337,371.563839 C840.128213,372.642201 837.238703,374.188963 834.328376,378.773042 L836.712013,380.284413 C839.524497,375.85855 842.224565,374.801006 844.837198,373.770526 C846.204927,373.235508 847.597638,372.671346 848.929977,371.69291 C846.733699,388.24722 833.945328,418.535028 812.540472,429.778719 C811.324713,425.175905 808.079219,419.981865 803.532613,414.756599 C817.570051,402.917519 817.345219,387.289601 817.124551,373.235508 C816.976744,363.802966 816.835183,354.895032 821.106995,348.368653 L818.742093,346.821891 C818.742093,346.821891 818.742093,346.823973 818.740011,346.823973 L818.438153,346.62204 C814.162178,353.158828 805.937068,356.556292 797.226903,360.153606 C784.771617,365.301847 770.998564,371.045476 765.327797,387.118895 C759.182384,384.52708 753.313848,382.978236 748.36754,382.978236 C748.171853,382.978236 747.99282,383.005299 747.799214,383.009463 C747.842931,382.645151 747.878322,382.28084 747.93453,381.920692 C749.114899,379.403821 749.59579,377.065982 749.583299,374.884278 C755.828637,354.591092 774.106661,337.458047 785.920759,330.452859 L785.920759,330.452859 Z M808.087546,442.920993 C811.901366,440.312523 813.046345,436.910895 813.083817,433.823617 C820.461643,426.033598 827.416868,429.075078 834.765549,432.320572 C837.467699,433.51135 840.082414,434.662574 842.632594,435.183018 C840.669476,436.890078 838.958253,439.161299 837.192904,441.5262 C832.658789,447.611242 828.339096,453.361116 819.262538,451.42298 C816.787302,446.678604 813.010954,443.743295 808.087546,442.920993 L808.087546,442.920993 Z M822.231155,475.455041 C841.008806,475.910951 849.539938,488.412036 857.779621,500.580037 C861.69753,506.369466 865.46555,511.923653 870.184944,515.820744 C864.074922,515.400225 857.525644,516.847062 850.705734,518.366761 C837.136696,521.387422 823.176283,524.474701 809.915348,513.974206 C816.335556,502.815868 820.890489,488.085197 822.231155,475.455041 L822.231155,475.455041 Z M814.299576,373.277144 C814.522326,387.283356 814.726341,401.689269 801.642357,412.660247 C792.763568,403.154842 779.975197,393.85137 767.913367,388.261792 C773.11157,373.225099 785.864551,367.904071 798.305265,362.76624 C804.762944,360.097398 810.962483,357.528483 815.721431,353.679272 C814.09348,359.579035 814.191323,366.28861 814.299576,373.277144 L814.299576,373.277144 Z M724.858005,380.323967 C724.529084,378.531555 724.106482,376.753715 723.596447,375.002939 C723.519421,369.87968 726.862758,365.734857 730.351821,361.433901 C732.235831,359.112717 734.044897,356.862313 735.214857,354.514066 C736.378572,356.864395 738.170984,359.118962 740.042504,361.450555 C743.41915,365.655749 746.656317,369.715219 746.768733,374.6532 C746.160854,376.68918 745.669554,378.750142 745.309406,380.838167 C744.89305,381.702105 744.403832,382.588943 743.785543,383.513253 C739.900943,384.485444 737.117604,386.783729 735.577087,390.301936 C733.9304,386.546406 730.857693,384.189832 726.54841,383.346711 C725.851014,382.299576 725.295179,381.296158 724.858005,380.323967 L724.858005,380.323967 Z M654.537578,353.681354 C659.298607,357.528483 665.496065,360.097398 671.953744,362.76624 C684.496465,367.947789 697.35978,373.306289 702.472631,388.628185 C690.458682,394.334343 677.83269,403.635733 669.122524,413.089093 C655.516014,402.06399 655.736683,387.464471 655.957351,373.277144 C656.067686,366.290692 656.167611,359.579035 654.537578,353.681354 L654.537578,353.681354 Z M661.182618,513.868035 C661.394959,514.23651 661.611464,514.584167 661.823806,514.942233 C648.958409,524.23946 635.474724,521.285415 622.353268,518.366761 C615.531277,516.847062 608.981999,515.400225 602.874058,515.820744 C607.593452,511.923653 611.363554,506.369466 615.281463,500.580037 C623.233861,488.832556 631.450644,476.776971 648.902201,475.540394 C650.00138,487.500217 653.944271,501.346132 661.182618,513.868035 L661.182618,513.868035 Z M658.072439,434.169192 C658.193182,437.162791 659.394369,440.410367 663.066628,442.920993 C658.449241,443.691251 654.758246,446.299721 652.289256,450.581941 C652.037361,451.017033 651.80212,451.483351 651.579369,451.962161 C642.831732,452.880225 638.936723,447.124105 634.86268,441.043228 C633.263874,438.657508 631.708785,436.367551 629.887228,434.581384 C632.41659,434.258708 635.039632,433.378116 637.75219,432.451724 C644.509646,430.14303 651.47528,427.794783 658.072439,434.169192 L658.072439,434.169192 Z M671.599842,551.025716 C671.325047,543.547964 671.066906,535.83289 680.45365,531.111414 C681.059448,531.196767 681.663164,531.257139 682.264798,531.257139 L682.268961,531.257139 C685.243824,531.255057 688.079208,530.222494 690.76054,528.174023 C689.792512,532.270965 690.256749,536.091031 692.161577,539.596747 C692.575851,540.36076 693.050497,541.091465 693.579269,541.788861 C692.161577,550.957017 685.312523,553.423926 678.654992,555.799236 C676.050686,556.72771 673.542142,557.639529 671.4104,558.901088 C671.78512,556.452915 671.703931,553.788237 671.599842,551.025716 L671.599842,551.025716 Z M746.187917,590.997963 C742.197146,596.737429 738.374999,602.252062 736.43478,608.056063 C734.629877,602.210427 730.920147,596.618767 727.048037,590.802275 C719.734746,579.814644 712.265321,568.510581 715.823082,553.573814 C722.397342,555.049796 729.360894,555.68682 735.577087,555.68682 C742.663464,555.68682 750.722032,554.860354 758.06655,552.905563 C761.801262,568.454373 753.909237,579.887506 746.187917,590.997963 L746.187917,590.997963 Z M788.883131,528.430082 C784.492658,528.432164 780.329099,525.451056 776.509034,519.567947 L774.137887,521.106382 C778.359736,527.603616 779.154976,533.372227 776.509034,538.247754 C771.764659,546.989146 755.312356,552.863927 735.577087,552.863927 C715.837655,552.863927 699.389515,546.989146 694.64514,538.247754 C691.995035,533.372227 692.792356,527.603616 697.014205,521.106382 L694.64514,519.567947 C690.822993,525.446892 686.661516,528.430082 682.268961,528.430082 L682.264798,528.430082 C676.196411,528.430082 669.578434,522.757233 663.626627,512.458671 C653.267692,494.519977 647.068153,465.283467 654.733265,451.993387 C657.96835,446.395482 663.458003,444.409465 670.946163,446.091543 L671.564452,443.337348 C663.913912,441.615717 660.345742,437.943458 660.957786,432.418415 C662.841796,415.426932 702.135382,385.805292 722.782471,385.805292 C730.441337,385.805292 734.163559,389.7919 734.163559,397.989947 L736.990615,397.989947 C736.990615,389.7919 740.712837,385.805292 748.36754,385.805292 C769.01671,385.805292 808.308215,415.426932 810.196389,432.416334 C810.808432,437.943458 807.240262,441.615717 799.587641,443.337348 L800.205929,446.091543 C801.93797,445.70225 803.580494,445.506563 805.091865,445.506563 C817.901054,445.506563 819.812128,459.710544 819.812128,468.175059 C819.81421,480.324323 816.037862,495.544213 809.95282,507.893328 C803.526367,520.946085 795.846683,528.430082 788.883131,528.430082 L788.883131,528.430082 Z M866.187928,415.116747 C873.605308,418.751534 880.714585,422.230187 887.374197,422.736059 C882.336291,426.416645 878.888864,432.566222 875.291549,438.984348 C871.028065,446.595333 866.614693,454.445723 859.172331,459.119318 C850.299787,455.076503 840.607022,452.282755 831.097454,452.055841 C834.561535,449.76172 837.151269,446.314293 839.459962,443.216605 C842.153784,439.6068 844.699801,436.194763 847.936968,435.334988 L847.884923,435.145546 L847.887005,435.145546 L847.158382,432.41217 C843.923297,433.274027 840.028288,431.554477 835.908446,429.735002 C832.034255,428.025861 827.660436,426.096051 823.080521,426.118951 C829.496566,420.720897 834.888374,413.796898 839.218476,406.452381 L839.218476,406.473198 C839.351709,406.471117 839.487025,406.471117 839.620259,406.471117 C848.542766,406.471117 857.511071,410.863671 866.187928,415.116747 L866.187928,415.116747 Z M904.398989,508.445 C898.513799,498.531566 892.909649,489.107351 886.287508,484.852194 C887.48245,484.779331 888.716945,484.935465 890.224153,485.576653 L890.777906,484.277623 L891.914558,483.438665 C886.832934,476.537567 875.622552,467.223686 862.136785,460.528683 C869.327251,455.38877 873.788505,447.448863 877.758458,440.364567 C882.269674,432.312245 886.528995,424.705423 893.829795,422.663197 L893.702807,422.196878 C893.748606,422.182306 893.796487,422.173979 893.842286,422.161488 L893.080354,419.440602 C885.66922,421.5203 876.811248,417.177708 867.432832,412.579058 C858.828838,408.363454 849.970866,404.066661 840.792301,403.67945 C848.03273,390.433088 851.890267,376.335278 852.096363,367.747938 L850.682835,367.712547 L849.485812,366.963107 C848.619791,368.353736 847.695481,369.188529 846.675409,369.813063 C849.658599,362.528917 848.846705,351.595411 847.978603,340.103989 C846.879424,325.485734 845.74069,310.369933 851.900676,300.954045 L849.535774,299.407283 C843.375789,308.827335 829.069801,313.842341 815.236377,318.690806 C804.359079,322.506707 794.014717,326.143576 788.541719,331.791444 C788.704098,330.608993 789.101718,329.428624 790.026028,328.075467 L788.862313,327.278146 L788.262761,325.997851 C782.398388,328.73331 773.861011,334.93493 765.889877,343.370301 C762.960814,334.961994 756.58016,327.796509 750.380621,320.851693 C743.423314,313.057511 736.857381,305.69842 736.857381,298 L734.032407,298 C734.032407,298.047881 734.038652,298.095762 734.038652,298.143643 L733.553597,298.143643 C733.553597,305.852472 726.941866,313.182417 719.942924,320.943291 C713.71424,327.850635 707.300277,334.976566 704.356641,343.359892 C696.385508,334.930767 687.858539,328.731228 681.996248,325.997851 L681.396696,327.278146 L680.230899,328.075467 C681.155209,329.428624 681.554911,330.608993 681.719372,331.791444 C676.244292,326.143576 665.89993,322.506707 655.024714,318.692887 C641.19129,313.842341 626.881138,308.827335 620.723235,299.409365 L618.360415,300.954045 C624.518319,310.369933 623.379585,325.485734 622.280406,340.103989 C621.412304,351.595411 620.60041,362.528917 623.581518,369.813063 C622.563528,369.190611 621.641299,368.353736 620.777361,366.965189 L619.578256,367.712547 L618.164728,367.747938 C618.358333,375.921004 621.859886,389.088259 628.442473,401.762132 C619.411714,401.964064 610.582887,406.036025 602.012201,409.958097 C592.515124,414.304853 583.546818,418.40804 576.189809,416.140982 L575.357098,418.838968 C575.402897,418.853541 575.446614,418.86395 575.494495,418.87644 L575.352934,419.338595 C582.71827,421.61398 587.770748,430.093068 593.125085,439.071782 C597.965222,447.18864 602.961493,455.567803 610.29352,460.838868 C597.084629,467.506808 586.149042,476.643737 581.146526,483.438665 L582.285259,484.277623 L582.836931,485.576653 C584.342058,484.935465 585.578634,484.779331 586.769412,484.850112 C580.149354,489.107351 574.545204,498.531566 568.664177,508.442918 C561.18018,521.050174 553.446369,534.082113 543,538.268572 L544.049217,540.891614 C554.497668,536.703074 569.097187,540.804179 583.211651,544.761642 C592.271555,547.305576 600.979639,549.747504 608.076425,549.747504 C609.666904,549.747504 611.172031,549.61427 612.587641,549.343638 C611.777828,550.215904 610.772329,550.954936 609.244303,551.529507 L609.739766,552.851437 L609.496198,554.242065 C611.940207,554.675075 614.998341,554.91448 618.48324,554.91448 C624.439211,554.91448 631.633841,554.210839 639.128247,552.566233 C636.854943,560.835061 637.720964,570.026117 638.572411,578.952787 C639.561257,589.347112 640.495976,599.166865 635.93896,605.370568 L638.214345,607.044319 C638.245572,607.004765 638.26639,606.961047 638.295535,606.925657 L638.682746,607.208779 C643.25017,601.000913 652.917953,599.00865 663.154063,596.897726 C672.343037,595.005388 681.817215,593.046434 689.176306,587.939829 C691.045743,599.762254 694.776292,610.02959 698.207065,615.71493 L699.416579,614.986307 L700.825943,614.973816 C700.815534,613.337538 701.144455,612.134269 701.666982,611.062153 C703.059693,618.806372 709.613134,627.593563 716.514233,636.826255 C725.288933,648.567491 734.365491,660.71051 734.221849,671.96461 L737.048905,672 C737.188384,660.747982 746.564719,648.840204 755.63295,637.321718 C762.760963,628.26806 769.535073,619.645329 771.125552,611.934418 C771.618934,613.021107 771.920792,614.232703 771.866666,615.8669 L773.276031,615.914781 L774.46889,616.67463 C778.168212,610.872711 781.896679,600.817716 783.94515,589.32213 C791.770559,594.503679 801.777673,595.996315 811.472519,597.428579 C821.802309,598.954524 831.559609,600.397197 836.493426,606.307369 L838.66264,604.498302 C838.631414,604.458748 838.596023,604.42544 838.564797,604.39005 L838.935354,604.075701 C833.997373,598.159284 834.378338,588.295813 834.780122,577.853607 C835.111125,569.180914 835.446291,560.26049 832.962728,552.341401 C840.804791,554.144222 848.369978,554.91448 854.579926,554.91448 C858.060661,554.91448 861.120877,554.675075 863.564886,554.242065 L863.319236,552.851437 L863.814699,551.529507 C862.286673,550.954936 861.285337,550.215904 860.473443,549.343638 C861.889053,549.61427 863.392098,549.747504 864.984659,549.747504 C872.081445,549.747504 880.789529,547.305576 889.847351,544.763724 C903.965979,540.802097 918.559253,536.703074 929.011867,540.891614 L930.063166,538.268572 C919.614715,534.082113 911.878823,521.052256 904.398989,508.445 L904.398989,508.445 Z M736.382736,501.866577 C716.097877,501.866577 699.595612,486.430182 699.595612,467.452681 C699.595612,448.477262 716.097877,433.038786 736.382736,433.038786 C756.667594,433.038786 773.167778,448.477262 773.167778,467.452681 C773.167778,486.430182 756.667594,501.866577 736.382736,501.866577 L736.382736,501.866577 Z M736.382736,430.213811 C714.538624,430.213811 696.768555,446.920091 696.768555,467.452681 C696.768555,487.985272 714.538624,504.691552 736.382736,504.691552 C758.224765,504.691552 775.994835,487.985272 775.994835,467.452681 C775.994835,446.920091 758.224765,430.213811 736.382736,430.213811 L736.382736,430.213811 Z M736.382736,521.156345 C704.754261,521.156345 679.023467,497.063912 679.023467,467.450599 C679.023467,437.837287 704.754261,413.746936 736.382736,413.746936 C768.009129,413.746936 793.739922,437.837287 793.739922,467.450599 C793.739922,497.063912 768.009129,521.156345 736.382736,521.156345 L736.382736,521.156345 Z M736.382736,410.919879 C703.195008,410.919879 676.198493,436.280116 676.198493,467.450599 C676.198493,498.621083 703.195008,523.98132 736.382736,523.98132 C769.5663,523.98132 796.564897,498.621083 796.564897,467.450599 C796.564897,436.280116 769.5663,410.919879 736.382736,410.919879 L736.382736,410.919879 Z" id="Page-1-Copy-7"></path>
                <path d="M1402.08542,246.04492 C1389.67801,249.521491 1377.9576,252.810703 1371.06482,249.667216 L1370.98572,249.842085 C1369.40981,247.481347 1367.32387,244.951985 1362.25473,243.001358 L1361.23883,245.636891 C1366.13309,247.520901 1367.70483,249.958665 1369.22453,252.317321 C1370.02602,253.558062 1370.85665,254.817538 1372.09114,255.935454 C1365.06305,256.468389 1355.11423,255.793893 1344.81359,253.247876 C1344.69909,252.985572 1344.595,252.714941 1344.47217,252.450555 L1343.49374,252.906465 C1330.83444,249.586026 1317.85454,243.396896 1309.30884,233.133724 C1313.72637,230.641834 1317.83997,226.107718 1321.44561,220.405724 C1328.91295,226.211807 1336.60721,228.070836 1344.19738,228.070836 C1351.07558,228.070836 1357.87051,226.559464 1364.31986,225.125118 C1373.51508,223.076647 1382.20443,221.138511 1389.45526,224.044675 L1389.59058,223.705345 L1389.82374,223.122446 L1390.50656,221.421633 L1390.6398,221.080221 C1383.39937,218.184466 1378.40518,210.806639 1373.11746,202.997885 C1364.86112,190.794494 1355.61386,177.175493 1335.47681,176.611331 C1335.58089,175.091632 1335.63918,173.607323 1335.63918,172.172977 C1335.63918,167.432765 1335.08335,163.294188 1334.02789,159.794717 C1358.61995,154.810937 1388.30612,173.215948 1400.05777,186.020974 C1398.40483,185.98142 1396.93926,186.316586 1395.51324,186.662162 C1392.77987,187.320004 1389.96114,188.000746 1385.121,185.985583 L1384.03639,188.596135 C1386.87594,189.776504 1389.15132,190.163715 1391.09571,190.163715 C1392.58418,190.163715 1393.8728,189.934719 1395.07399,189.666169 L1395.01153,189.845202 C1402.17702,192.332929 1408.38697,202.802198 1414.96955,213.885591 C1420.91095,223.901032 1427.01889,234.164205 1434.684,240.434524 C1424.80596,239.685084 1413.30205,242.897269 1402.08542,246.04492 L1402.08542,246.04492 Z M1346.63931,304.340989 C1340.86861,300.993487 1333.04529,299.8381 1324.88263,298.630668 C1315.18154,297.198404 1305.14944,295.718258 1297.76537,290.474256 L1297.31987,291.100872 C1299.00403,280.346399 1299.15184,268.521892 1296.43095,257.792401 C1299.44537,259.972024 1302.95941,261.273136 1306.13621,262.44726 C1310.21025,263.954468 1314.06362,265.378405 1315.96637,268.18048 L1316.11418,268.080555 L1318.44993,266.492157 C1316.5451,263.690082 1316.65544,259.586895 1316.77618,255.246385 C1316.87819,251.351375 1316.99477,246.977557 1315.56875,242.893106 C1323.57527,248.971902 1333.2264,253.027208 1342.6985,255.535752 C1345.65671,263.361161 1345.3028,272.693778 1344.95515,281.743273 C1344.63455,290.064146 1344.33478,298.029034 1346.63931,304.340989 L1346.63931,304.340989 Z M1294.62813,252.009218 C1293.98694,250.285504 1293.24583,248.60759 1292.41728,246.977557 C1292.17996,245.978303 1292.02382,244.881205 1291.93014,243.702918 C1291.94888,243.665446 1291.97178,243.630056 1291.99052,243.596747 C1293.89326,240.091031 1294.35958,236.270965 1293.39363,232.176105 C1296.0708,234.224576 1298.91035,235.257139 1301.88105,235.257139 L1301.88313,235.257139 C1302.68878,235.257139 1303.4861,235.155132 1304.28134,235.011489 C1314.3634,239.724637 1314.15522,247.577109 1313.94912,255.169359 C1313.87626,257.881917 1313.82422,260.500796 1314.20727,262.913578 C1312.10675,261.662429 1309.65858,260.738119 1307.11464,259.797155 C1302.38692,258.046378 1297.55928,256.241475 1294.62813,252.009218 L1294.62813,252.009218 Z M1287.04213,315.63256 C1286.48213,314.075389 1285.64317,312.832567 1284.80629,311.623053 C1283.20957,309.312278 1281.5608,306.924477 1281.69612,301.684638 L1278.87114,301.613858 C1278.73166,307.041057 1280.26802,309.936812 1281.846,312.29755 L1281.65656,312.303795 C1281.91678,319.881472 1274.38491,329.44933 1266.41377,339.573024 C1259.20665,348.726608 1251.83299,358.117515 1248.74363,367.525076 C1245.88743,358.038407 1238.74692,348.466385 1231.77713,339.133768 C1224.05997,328.810224 1216.77374,319.061251 1217.22549,311.496065 L1217.03397,311.483574 C1218.67024,309.16239 1220.27946,306.30827 1220.27321,300.876908 L1217.44824,300.87899 C1217.45448,306.12091 1215.74326,308.464994 1214.09241,310.734133 C1213.22223,311.926993 1212.3458,313.155243 1211.74625,314.70825 C1205.00128,300.529251 1198.63936,270.649471 1209.77688,249.138444 C1213.95501,252.692041 1219.74652,255.221403 1226.08346,256.905563 C1222.23841,273.053926 1230.33237,285.309361 1237.69563,296.367774 C1242.91673,304.214 1247.84846,311.625135 1247.75062,319.431808 L1250.57768,319.467198 L1250.57768,319.465116 L1250.94199,319.46928 C1251.03775,311.668852 1256.12146,304.353479 1261.50494,296.611342 C1269.29496,285.407205 1277.91977,272.978982 1273.80617,256.112405 C1280.08274,254.14096 1285.6286,251.263941 1289.3071,247.287742 C1289.48822,247.622908 1289.6839,247.949748 1289.85461,248.29116 C1290.3584,250.125207 1291.05996,251.71985 1291.93431,253.089661 C1299.60983,274.046935 1293.78917,302.011478 1287.04213,315.63256 L1287.04213,315.63256 Z M1201.72872,288.763033 C1194.71937,294.179823 1184.99746,296.190822 1175.58366,298.128959 C1167.43141,299.811037 1159.62473,301.422334 1154.04765,305.169537 C1155.915,298.765984 1155.16348,290.896857 1154.38281,282.684237 C1153.5043,273.459873 1152.60497,263.939896 1155.31129,255.812629 C1164.76881,253.416501 1174.47823,249.481938 1182.60758,243.548866 C1181.50632,247.408485 1181.64163,251.476282 1181.77903,255.131887 C1181.94141,259.507787 1182.09338,263.640119 1180.20521,266.442194 L1180.35509,266.54212 C1180.35301,266.54212 1180.35301,266.544202 1180.35301,266.544202 L1182.6971,268.12219 C1184.58735,265.318034 1188.48236,263.929487 1192.6022,262.45975 C1196.28487,261.144066 1200.4172,259.670166 1203.696,256.874336 C1200.63995,267.179144 1200.42345,278.437407 1201.72872,288.763033 L1201.72872,288.763033 Z M1153.18787,253.360293 C1153.16705,253.412337 1153.15248,253.4623 1153.13375,253.510181 C1143.23488,255.83761 1133.74405,256.449653 1126.96994,255.935454 C1128.20444,254.817538 1129.03715,253.558062 1129.83447,252.317321 C1131.35625,249.958665 1132.93008,247.520901 1137.82018,245.636891 L1136.80427,243.001358 C1131.73514,244.951985 1129.64919,247.481347 1128.07745,249.842085 L1127.99626,249.667216 C1121.10141,252.810703 1109.38099,249.521491 1096.97358,246.04492 C1085.75904,242.895187 1074.25512,239.683002 1064.375,240.434524 C1072.04219,234.164205 1078.14805,223.901032 1084.09361,213.885591 C1090.66995,202.802198 1096.88198,192.332929 1104.04747,189.845202 L1103.98502,189.666169 C1105.1862,189.934719 1106.47691,190.163715 1107.9633,190.163715 C1109.9056,190.163715 1112.18514,189.776504 1115.02469,188.596135 L1113.94217,185.985583 C1109.09787,188.000746 1106.27914,187.320004 1103.54576,186.662162 C1102.11974,186.316586 1100.65625,185.98142 1099.00124,186.020974 C1110.47392,173.524052 1139.02345,155.693611 1163.25536,159.476204 C1161.87306,164.124818 1161.32971,170.074543 1161.69819,176.72791 C1142.856,178.064413 1133.93349,191.183787 1125.94154,202.997885 C1120.65591,210.806639 1115.6638,218.186547 1108.41921,221.080221 L1108.5566,221.419551 C1108.55452,221.419551 1108.55244,221.421633 1108.55244,221.421633 L1109.60374,224.044675 C1116.85041,221.142674 1125.53768,223.076647 1134.74122,225.125118 C1141.1885,226.559464 1147.97926,228.070836 1154.86162,228.070836 C1162.0167,228.070836 1169.27378,226.409576 1176.34142,221.350852 C1180.40922,227.500429 1184.79553,231.732686 1189.19225,233.79573 C1180.14692,244.235853 1166.4613,250.343794 1153.4127,253.449809 L1153.18787,253.360293 Z M1108.55244,141.622864 C1104.28479,134.46987 1100.19826,127.622897 1094.8231,123.584245 C1101.49104,123.249079 1108.68359,119.961949 1116.19049,116.529095 C1124.97352,112.505015 1134.03134,108.366438 1142.9705,108.593352 C1147.75651,117.132811 1153.94772,125.251751 1161.50042,131.224376 C1157.40348,131.207722 1153.4127,132.556715 1149.84037,133.778719 C1145.63101,135.215147 1141.6569,136.574549 1138.46761,135.508678 L1137.57036,138.187928 L1137.57244,138.187928 L1137.51415,138.366961 C1140.70344,139.436996 1143.0392,142.921894 1145.51652,146.617053 C1147.72945,149.920837 1150.2255,153.622241 1153.78118,156.089149 C1144.41525,156.522159 1134.91401,159.380442 1126.23091,163.412849 C1118.67821,158.601857 1113.52789,149.974963 1108.55244,141.622864 L1108.55244,141.622864 Z M1134.33111,75.6929097 C1135.66137,76.671346 1137.05408,77.2355083 1138.42181,77.7705256 C1141.03444,78.8010064 1143.73451,79.8585503 1146.54908,84.2844134 L1148.93063,82.7730415 C1146.02031,78.1889632 1143.1308,76.6442829 1140.50359,75.5638394 L1140.65764,75.4514233 C1136.21512,69.3080922 1137.12903,57.1692364 1138.09497,44.3163303 C1138.9714,32.7020829 1139.85199,20.7943046 1137.17066,11.2597549 C1144.82953,17.5384016 1156.09612,21.5041914 1167.09,25.3596469 C1179.25175,29.6231311 1190.73901,33.6492925 1194.58406,40.1798346 L1194.74852,40.0840727 C1194.68814,42.9215381 1194.94212,46.1899318 1197.97736,50.6928206 L1200.31936,49.1148318 C1197.39238,44.7680764 1197.50479,41.8681577 1197.60888,39.0660826 C1197.66717,37.5880192 1197.70673,36.0787291 1197.33825,34.4549412 C1209.22521,41.4996827 1227.64688,58.7930244 1233.78604,79.2465072 C1233.83184,81.1513353 1234.26694,83.1769067 1235.21623,85.3398755 C1235.30783,85.8873835 1235.36195,86.4411369 1235.42857,86.9948902 C1230.35111,87.0656707 1224.33477,88.7248489 1218.05196,91.4561435 C1212.45821,75.1225021 1198.57899,69.3372371 1186.03419,64.1536064 C1177.32194,60.5562915 1169.09683,57.1588275 1164.82086,50.6220401 L1164.51692,50.821891 L1162.1541,52.3686531 C1166.42383,58.8950316 1166.28018,67.8008839 1166.13446,77.2334265 C1165.90754,91.4623888 1165.67439,107.306812 1180.251,119.200018 C1175.77726,124.421121 1172.60047,129.60267 1171.50129,134.170094 C1149.62387,123.265733 1136.55029,92.4470705 1134.33111,75.6929097 L1134.33111,75.6929097 Z M1235.04344,26.8356285 C1240.61844,20.6548254 1245.94988,14.7300812 1248.22735,8.40979884 C1250.51522,14.6780367 1255.77796,20.5798813 1261.27178,26.7315395 C1267.65243,33.88037 1274.23294,41.270687 1276.69152,49.7726741 C1270.62938,56.607156 1265.08976,64.7073597 1261.55282,73.5236955 C1260.15594,69.8014739 1257.57454,66.5809612 1255.24711,63.6810424 C1252.41172,60.1503446 1249.73247,56.8153339 1249.73247,53.4719962 L1249.53262,53.4719962 L1246.9075,53.4719962 L1246.70349,53.4719962 C1246.70349,56.8194975 1244.01174,60.1378539 1241.15763,63.6539793 C1238.78231,66.583043 1236.13429,69.8451913 1234.74783,73.6298663 C1231.20672,64.7635677 1225.6442,56.6217284 1219.55292,49.7581017 C1222.01983,41.2873412 1228.63364,33.9407416 1235.04344,26.8356285 L1235.04344,26.8356285 Z M1298.92076,34.4528594 C1298.55228,36.0787291 1298.59184,37.5880192 1298.65013,39.0660826 C1298.75422,41.8660759 1298.86663,44.7680764 1295.93757,49.1148318 L1298.28165,50.6928206 C1301.31689,46.1899318 1301.57295,42.9194563 1301.51049,40.0819909 L1301.67703,40.1798346 C1305.52208,33.6492925 1317.00934,29.6231311 1329.1711,25.3596469 C1340.16289,21.5041914 1351.4274,17.5384016 1359.08835,11.2597549 C1356.40702,20.7943046 1357.28969,32.7041647 1358.16196,44.3163303 C1359.12998,57.1671546 1360.04388,69.3060104 1355.60137,75.4514233 L1355.75334,75.5638394 C1353.12821,76.6422011 1350.2387,78.1889632 1347.32838,82.7730415 L1349.71201,84.2844134 C1352.5245,79.8585503 1355.22456,78.8010064 1357.8372,77.7705256 C1359.20493,77.2355083 1360.59764,76.671346 1361.92998,75.6929097 C1359.7337,92.2472197 1346.94533,122.535028 1325.54047,133.778719 C1324.32471,129.175905 1321.07922,123.981865 1316.53261,118.756599 C1330.57005,106.917519 1330.34522,91.2896011 1330.12455,77.2355083 C1329.97674,67.8029657 1329.83518,58.8950316 1334.10699,52.3686531 L1331.74209,50.821891 C1331.74209,50.821891 1331.74209,50.8239727 1331.74001,50.8239727 L1331.43815,50.6220401 C1327.16218,57.1588275 1318.93707,60.5562915 1310.2269,64.1536064 C1297.77162,69.3018469 1283.99856,75.0454763 1278.3278,91.1188952 C1272.18238,88.5270798 1266.31385,86.9782359 1261.36754,86.9782359 C1261.17185,86.9782359 1260.99282,87.0052991 1260.79921,87.0094626 C1260.84293,86.6451512 1260.87832,86.2808398 1260.93453,85.920692 C1262.1149,83.4038207 1262.59579,81.0659824 1262.5833,78.8842776 C1268.82864,58.5910918 1287.10666,41.4580471 1298.92076,34.4528594 L1298.92076,34.4528594 Z M1321.08755,146.920993 C1324.90137,144.312523 1326.04634,140.910895 1326.08382,137.823617 C1333.46164,130.033598 1340.41687,133.075078 1347.76555,136.320572 C1350.4677,137.51135 1353.08241,138.662574 1355.63259,139.183018 C1353.66948,140.890078 1351.95825,143.161299 1350.1929,145.5262 C1345.65879,151.611242 1341.3391,157.361116 1332.26254,155.42298 C1329.7873,150.678604 1326.01095,147.743295 1321.08755,146.920993 L1321.08755,146.920993 Z M1335.23116,179.455041 C1354.00881,179.910951 1362.53994,192.412036 1370.77962,204.580037 C1374.69753,210.369466 1378.46555,215.923653 1383.18494,219.820744 C1377.07492,219.400225 1370.52564,220.847062 1363.70573,222.366761 C1350.1367,225.387422 1336.17628,228.474701 1322.91535,217.974206 C1329.33556,206.815868 1333.89049,192.085197 1335.23116,179.455041 L1335.23116,179.455041 Z M1327.29958,77.2771438 C1327.52233,91.2833558 1327.72634,105.689269 1314.64236,116.660247 C1305.76357,107.154842 1292.9752,97.8513699 1280.91337,92.2617921 C1286.11157,77.2250994 1298.86455,71.9040712 1311.30526,66.7662395 C1317.76294,64.0973983 1323.96248,61.5284825 1328.72143,57.6792724 C1327.09348,63.5790353 1327.19132,70.2886103 1327.29958,77.2771438 L1327.29958,77.2771438 Z M1237.858,84.3239672 C1237.52908,82.5315551 1237.10648,80.7537155 1236.59645,79.002939 C1236.51942,73.8796798 1239.86276,69.734857 1243.35182,65.4339007 C1245.23583,63.1127167 1247.0449,60.8623131 1248.21486,58.5140659 C1249.37857,60.8643949 1251.17098,63.118962 1253.0425,65.450555 C1256.41915,69.6557494 1259.65632,73.7152193 1259.76873,78.6532 C1259.16085,80.6891803 1258.66955,82.7501419 1258.30941,84.8381667 C1257.89305,85.7021052 1257.40383,86.5889432 1256.78554,87.5132533 C1252.90094,88.4854442 1250.1176,90.7837287 1248.57709,94.3019359 C1246.9304,90.5464059 1243.85769,88.1898316 1239.54841,87.3467109 C1238.85101,86.2995759 1238.29518,85.2961582 1237.858,84.3239672 L1237.858,84.3239672 Z M1167.53758,57.6813542 C1172.29861,61.5284825 1178.49606,64.0973983 1184.95374,66.7662395 C1197.49647,71.9477885 1210.35978,77.3062888 1215.47263,92.6281853 C1203.45868,98.3343427 1190.83269,107.635733 1182.12252,117.089093 C1168.51601,106.06399 1168.73668,91.4644706 1168.95735,77.2771438 C1169.06769,70.2906921 1169.16761,63.5790353 1167.53758,57.6813542 L1167.53758,57.6813542 Z M1174.18262,217.868035 C1174.39496,218.23651 1174.61146,218.584167 1174.82381,218.942233 C1161.95841,228.23946 1148.47472,225.285415 1135.35327,222.366761 C1128.53128,220.847062 1121.982,219.400225 1115.87406,219.820744 C1120.59345,215.923653 1124.36355,210.369466 1128.28146,204.580037 C1136.23386,192.832556 1144.45064,180.776971 1161.9022,179.540394 C1163.00138,191.500217 1166.94427,205.346132 1174.18262,217.868035 L1174.18262,217.868035 Z M1171.07244,138.169192 C1171.19318,141.162791 1172.39437,144.410367 1176.06663,146.920993 C1171.44924,147.691251 1167.75825,150.299721 1165.28926,154.581941 C1165.03736,155.017033 1164.80212,155.483351 1164.57937,155.962161 C1155.83173,156.880225 1151.93672,151.124105 1147.86268,145.043228 C1146.26387,142.657508 1144.70878,140.367551 1142.88723,138.581384 C1145.41659,138.258708 1148.03963,137.378116 1150.75219,136.451724 C1157.50965,134.14303 1164.47528,131.794783 1171.07244,138.169192 L1171.07244,138.169192 Z M1184.59984,255.025716 C1184.32505,247.547964 1184.06691,239.83289 1193.45365,235.111414 C1194.05945,235.196767 1194.66316,235.257139 1195.2648,235.257139 L1195.26896,235.257139 C1198.24382,235.255057 1201.07921,234.222494 1203.76054,232.174023 C1202.79251,236.270965 1203.25675,240.091031 1205.16158,243.596747 C1205.57585,244.36076 1206.0505,245.091465 1206.57927,245.788861 C1205.16158,254.957017 1198.31252,257.423926 1191.65499,259.799236 C1189.05069,260.72771 1186.54214,261.639529 1184.4104,262.901088 C1184.78512,260.452915 1184.70393,257.788237 1184.59984,255.025716 L1184.59984,255.025716 Z M1259.18792,294.997963 C1255.19715,300.737429 1251.375,306.252062 1249.43478,312.056063 C1247.62988,306.210427 1243.92015,300.618767 1240.04804,294.802275 C1232.73475,283.814644 1225.26532,272.510581 1228.82308,257.573814 C1235.39734,259.049796 1242.36089,259.68682 1248.57709,259.68682 C1255.66346,259.68682 1263.72203,258.860354 1271.06655,256.905563 C1274.80126,272.454373 1266.90924,283.887506 1259.18792,294.997963 L1259.18792,294.997963 Z M1301.88313,232.430082 C1297.49266,232.432164 1293.3291,229.451056 1289.50903,223.567947 L1287.13789,225.106382 C1291.35974,231.603616 1292.15498,237.372227 1289.50903,242.247754 C1284.76466,250.989146 1268.31236,256.863927 1248.57709,256.863927 C1228.83765,256.863927 1212.38952,250.989146 1207.64514,242.247754 C1204.99503,237.372227 1205.79236,231.603616 1210.01421,225.106382 L1207.64514,223.567947 C1203.82299,229.446892 1199.66152,232.430082 1195.26896,232.430082 L1195.2648,232.430082 C1189.19641,232.430082 1182.57843,226.757233 1176.62663,216.458671 C1166.26769,198.519977 1160.06815,169.283467 1167.73327,155.993387 C1170.96835,150.395482 1176.458,148.409465 1183.94616,150.091543 L1184.56445,147.337348 C1176.91391,145.615717 1173.34574,141.943458 1173.95779,136.418415 C1175.8418,119.426932 1215.13538,89.8052924 1235.78247,89.8052924 C1243.44134,89.8052924 1247.16356,93.7919 1247.16356,101.989947 L1249.99062,101.989947 C1249.99062,93.7919 1253.71284,89.8052924 1261.36754,89.8052924 C1282.01671,89.8052924 1321.30821,119.426932 1323.19639,136.416334 C1323.80843,141.943458 1320.24026,145.615717 1312.58764,147.337348 L1313.20593,150.091543 C1314.93797,149.70225 1316.58049,149.506563 1318.09187,149.506563 C1330.90105,149.506563 1332.81213,163.710544 1332.81213,172.175059 C1332.81421,184.324323 1329.03786,199.544213 1322.95282,211.893328 C1316.52637,224.946085 1308.84668,232.430082 1301.88313,232.430082 L1301.88313,232.430082 Z M1379.18793,119.116747 C1386.60531,122.751534 1393.71458,126.230187 1400.3742,126.736059 C1395.33629,130.416645 1391.88886,136.566222 1388.29155,142.984348 C1384.02807,150.595333 1379.61469,158.445723 1372.17233,163.119318 C1363.29979,159.076503 1353.60702,156.282755 1344.09745,156.055841 C1347.56153,153.76172 1350.15127,150.314293 1352.45996,147.216605 C1355.15378,143.6068 1357.6998,140.194763 1360.93697,139.334988 L1360.88492,139.145546 L1360.88701,139.145546 L1360.15838,136.41217 C1356.9233,137.274027 1353.02829,135.554477 1348.90845,133.735002 C1345.03425,132.025861 1340.66044,130.096051 1336.08052,130.118951 C1342.49657,124.720897 1347.88837,117.796898 1352.21848,110.452381 L1352.21848,110.473198 C1352.35171,110.471117 1352.48703,110.471117 1352.62026,110.471117 C1361.54277,110.471117 1370.51107,114.863671 1379.18793,119.116747 L1379.18793,119.116747 Z M1417.39899,212.445 C1411.5138,202.531566 1405.90965,193.107351 1399.28751,188.852194 C1400.48245,188.779331 1401.71694,188.935465 1403.22415,189.576653 L1403.77791,188.277623 L1404.91456,187.438665 C1399.83293,180.537567 1388.62255,171.223686 1375.13679,164.528683 C1382.32725,159.38877 1386.7885,151.448863 1390.75846,144.364567 C1395.26967,136.312245 1399.52899,128.705423 1406.8298,126.663197 L1406.70281,126.196878 C1406.74861,126.182306 1406.79649,126.173979 1406.84229,126.161488 L1406.08035,123.440602 C1398.66922,125.5203 1389.81125,121.177708 1380.43283,116.579058 C1371.82884,112.363454 1362.97087,108.066661 1353.7923,107.67945 C1361.03273,94.433088 1364.89027,80.3352778 1365.09636,71.7479377 L1363.68283,71.7125475 L1362.48581,70.9631069 C1361.61979,72.3537355 1360.69548,73.1885291 1359.67541,73.8130629 C1362.6586,66.5289167 1361.84671,55.5954112 1360.9786,44.1039888 C1359.87942,29.4857337 1358.74069,14.3699333 1364.90068,4.954045 L1362.53577,3.40728289 C1356.37579,12.8273348 1342.0698,17.8423414 1328.23638,22.6908057 C1317.35908,26.5067073 1307.01472,30.143576 1301.54172,35.7914436 C1301.7041,34.6089928 1302.10172,33.4286239 1303.02603,32.0754673 L1301.86231,31.2781458 L1301.26276,29.9978514 C1295.39839,32.7333096 1286.86101,38.9349305 1278.88988,47.3703007 C1275.96081,38.9619936 1269.58016,31.7965088 1263.38062,24.8516927 C1256.42331,17.0575105 1249.85738,9.6984203 1249.85738,2 L1247.03241,2 C1247.03241,2.04788093 1247.03865,2.09576185 1247.03865,2.14364278 L1246.5536,2.14364278 C1246.5536,9.85247197 1239.94187,17.1824173 1232.94292,24.943291 C1226.71424,31.8506351 1220.30028,38.9765661 1217.35664,47.3598918 C1209.38551,38.9307669 1200.85854,32.7312278 1194.99625,29.9978514 L1194.3967,31.2781458 L1193.2309,32.0754673 C1194.15521,33.4286239 1194.55491,34.6089928 1194.71937,35.7914436 C1189.24429,30.143576 1178.89993,26.5067073 1168.02471,22.6928874 C1154.19129,17.8423414 1139.88114,12.8273348 1133.72323,3.40936467 L1131.36042,4.954045 C1137.51832,14.3699333 1136.37959,29.4857337 1135.28041,44.1039888 C1134.4123,55.5954112 1133.60041,66.5289167 1136.58152,73.8130629 C1135.56353,73.1906108 1134.6413,72.3537355 1133.77736,70.9651886 L1132.57826,71.7125475 L1131.16473,71.7479377 C1131.35833,79.9210037 1134.85989,93.0882585 1141.44247,105.762132 C1132.41171,105.964064 1123.58289,110.036025 1115.0122,113.958097 C1105.51512,118.304853 1096.54682,122.40804 1089.18981,120.140982 L1088.3571,122.838968 C1088.4029,122.853541 1088.44661,122.86395 1088.49449,122.87644 L1088.35293,123.338595 C1095.71827,125.61398 1100.77075,134.093068 1106.12508,143.071782 C1110.96522,151.18864 1115.96149,159.567803 1123.29352,164.838868 C1110.08463,171.506808 1099.14904,180.643737 1094.14653,187.438665 L1095.28526,188.277623 L1095.83693,189.576653 C1097.34206,188.935465 1098.57863,188.779331 1099.76941,188.850112 C1093.14935,193.107351 1087.5452,202.531566 1081.66418,212.442918 C1074.18018,225.050174 1066.44637,238.082113 1056,242.268572 L1057.04922,244.891614 C1067.49767,240.703074 1082.09719,244.804179 1096.21165,248.761642 C1105.27156,251.305576 1113.97964,253.747504 1121.07642,253.747504 C1122.6669,253.747504 1124.17203,253.61427 1125.58764,253.343638 C1124.77783,254.215904 1123.77233,254.954936 1122.2443,255.529507 L1122.73977,256.851437 L1122.4962,258.242065 C1124.94021,258.675075 1127.99834,258.91448 1131.48324,258.91448 C1137.43921,258.91448 1144.63384,258.210839 1152.12825,256.566233 C1149.85494,264.835061 1150.72096,274.026117 1151.57241,282.952787 C1152.56126,293.347112 1153.49598,303.166865 1148.93896,309.370568 L1151.21435,311.044319 C1151.24557,311.004765 1151.26639,310.961047 1151.29553,310.925657 L1151.68275,311.208779 C1156.25017,305.000913 1165.91795,303.00865 1176.15406,300.897726 C1185.34304,299.005388 1194.81722,297.046434 1202.17631,291.939829 C1204.04574,303.762254 1207.77629,314.02959 1211.20706,319.71493 L1212.41658,318.986307 L1213.82594,318.973816 C1213.81553,317.337538 1214.14446,316.134269 1214.66698,315.062153 C1216.05969,322.806372 1222.61313,331.593563 1229.51423,340.826255 C1238.28893,352.567491 1247.36549,364.71051 1247.22185,375.96461 L1250.04891,376 C1250.18838,364.747982 1259.56472,352.840204 1268.63295,341.321718 C1275.76096,332.26806 1282.53507,323.645329 1284.12555,315.934418 C1284.61893,317.021107 1284.92079,318.232703 1284.86667,319.8669 L1286.27603,319.914781 L1287.46889,320.67463 C1291.16821,314.872711 1294.89668,304.817716 1296.94515,293.32213 C1304.77056,298.503679 1314.77767,299.996315 1324.47252,301.428579 C1334.80231,302.954524 1344.55961,304.397197 1349.49343,310.307369 L1351.66264,308.498302 C1351.63141,308.458748 1351.59602,308.42544 1351.5648,308.39005 L1351.93535,308.075701 C1346.99737,302.159284 1347.37834,292.295813 1347.78012,281.853607 C1348.11112,273.180914 1348.44629,264.26049 1345.96273,256.341401 C1353.80479,258.144222 1361.36998,258.91448 1367.57993,258.91448 C1371.06066,258.91448 1374.12088,258.675075 1376.56489,258.242065 L1376.31924,256.851437 L1376.8147,255.529507 C1375.28667,254.954936 1374.28534,254.215904 1373.47344,253.343638 C1374.88905,253.61427 1376.3921,253.747504 1377.98466,253.747504 C1385.08145,253.747504 1393.78953,251.305576 1402.84735,248.763724 C1416.96598,244.802097 1431.55925,240.703074 1442.01187,244.891614 L1443.06317,242.268572 C1432.61471,238.082113 1424.87882,225.052256 1417.39899,212.445 L1417.39899,212.445 Z M1249.38274,205.866577 C1229.09788,205.866577 1212.59561,190.430182 1212.59561,171.452681 C1212.59561,152.477262 1229.09788,137.038786 1249.38274,137.038786 C1269.66759,137.038786 1286.16778,152.477262 1286.16778,171.452681 C1286.16778,190.430182 1269.66759,205.866577 1249.38274,205.866577 L1249.38274,205.866577 Z M1249.38274,134.213811 C1227.53862,134.213811 1209.76856,150.920091 1209.76856,171.452681 C1209.76856,191.985272 1227.53862,208.691552 1249.38274,208.691552 C1271.22477,208.691552 1288.99483,191.985272 1288.99483,171.452681 C1288.99483,150.920091 1271.22477,134.213811 1249.38274,134.213811 L1249.38274,134.213811 Z M1249.38274,225.156345 C1217.75426,225.156345 1192.02347,201.063912 1192.02347,171.450599 C1192.02347,141.837287 1217.75426,117.746936 1249.38274,117.746936 C1281.00913,117.746936 1306.73992,141.837287 1306.73992,171.450599 C1306.73992,201.063912 1281.00913,225.156345 1249.38274,225.156345 L1249.38274,225.156345 Z M1249.38274,114.919879 C1216.19501,114.919879 1189.19849,140.280116 1189.19849,171.450599 C1189.19849,202.621083 1216.19501,227.98132 1249.38274,227.98132 C1282.5663,227.98132 1309.5649,202.621083 1309.5649,171.450599 C1309.5649,140.280116 1282.5663,114.919879 1249.38274,114.919879 L1249.38274,114.919879 Z" id="Page-1-Copy-9"></path>
            </g>
        </g>
    </g>
</svg>