<?xml version="1.0" encoding="UTF-8" standalone="no"?>
<svg width="90px" height="130px" viewBox="0 0 90 130" version="1.1" xmlns="http://www.w3.org/2000/svg" xmlns:xlink="http://www.w3.org/1999/xlink">
    <!-- Generator: Sketch 3.6.1 (26313) - http://www.bohemiancoding.com/sketch -->
    <title>Page 1</title>
    <desc>Created with Sketch.</desc>
    <defs></defs>
    <g id="Page-1" stroke="none" stroke-width="1" fill="none" fill-rule="evenodd">
        <g id="Desktop-HD" transform="translate(-687.000000, -1901.000000)" fill="#93649C">
            <g id="Page-1" transform="translate(687.000000, 1901.000000)">
                <path d="M50.5487,9.593 C49.5857,9.593 48.3507,9.909 48.3507,10.872 L48.3507,32.501 L48.3047,32.501 L48.3047,32.82 C48.3047,34.747 47.6227,36.308 45.7927,36.308 C44.1437,36.308 43.3727,35.039 43.1187,33.379 L43.1187,10.872 C43.1187,9.909 41.7447,9.593 40.7807,9.593 C39.8177,9.593 38.2107,9.909 38.2107,10.872 L38.2107,32.47 L38.2107,32.82 C38.2107,34.747 37.5527,36.308 35.7227,36.308 C33.8927,36.308 33.1757,34.747 33.1757,32.82 L33.1757,10.872 C33.1757,9.909 32.1157,9.593 31.1527,9.593 C30.1896,9.593 28.9207,9.909 28.9207,10.872 L28.9207,32.355 L28.9207,35.146 L28.9207,46.803 C28.9207,52.583 33.6057,57.269 39.3857,57.269 L42.1766,57.269 C47.9567,57.269 52.6417,52.583 52.6417,46.803 L52.6417,10.872 C52.6417,9.909 51.5117,9.593 50.5487,9.593 L50.5487,9.593 Z" id="Fill-1"></path>
                <path d="M44.6187,126.108 C44.6187,128.227 42.9007,129.945 40.7807,129.945 C38.6617,129.945 36.9437,128.227 36.9437,126.108 L36.9437,54.943 C36.9437,52.824 38.6617,51.106 40.7807,51.106 C42.9007,51.106 44.6187,52.824 44.6187,54.943 L44.6187,126.108 Z" id="Fill-2"></path>
                <path d="M78.8677,126.108 C78.8677,128.227 77.1497,129.945 75.0307,129.945 C72.9117,129.945 71.1937,128.227 71.1937,126.108 L71.1937,54.943 C71.1937,52.824 72.9117,51.106 75.0307,51.106 C77.1497,51.106 78.8677,52.824 78.8677,54.943 L78.8677,126.108 Z" id="Fill-3"></path>
                <path d="M89.6597,33.896 C91.0857,46.725 86.8687,57.269 75.0077,57.269 C63.8447,57.269 59.0057,46.733 60.3567,33.896 C61.7517,20.64 68.7286,10.523 75.0077,10.523 C80.5897,10.523 88.2647,21.337 89.6597,33.896 L89.6597,33.896 Z" id="Fill-4"></path>
                <path d="M8.4807,126.108 C8.4807,128.227 6.7626,129.945 4.6437,129.945 C2.5237,129.945 0.8057,128.227 0.8057,126.108 L0.8057,76.688 C0.8057,74.569 2.5237,72.851 4.6437,72.851 C6.7626,72.851 8.4807,74.569 8.4807,76.688 L8.4807,126.108 Z" id="Fill-5"></path>
                <path d="M13.0627,53.955 C13.0627,72.327 10.9937,73.49 5.2137,73.49 C-0.5663,73.49 0.1547,72.792 0.1547,53.024 C0.1547,31.157 -0.1933,0 0.1547,0 C2.5967,0 13.0627,28.14 13.0627,53.955 L13.0627,53.955 Z" id="Fill-6"></path>
                <path d="M8.7017,74.13 C8.7017,73.231 7.9727,72.502 7.0737,72.502 L2.4227,72.502 C1.5237,72.502 0.7947,73.231 0.7947,74.13 C0.7947,75.029 1.5237,75.758 2.4227,75.758 L7.0737,75.758 C7.9727,75.758 8.7017,75.029 8.7017,74.13 L8.7017,74.13 Z" id="Fill-7"></path>
            </g>
        </g>
    </g>
</svg>